<svg width="531" height="236" viewBox="0 0 531 236" fill="none" xmlns="http://www.w3.org/2000/svg">
<path d="M26.9904 33C26.6921 31.9134 26.2553 30.896 25.68 29.9478C25.1048 28.989 24.391 28.1527 23.5387 27.4389C22.6971 26.7145 21.7223 26.1499 20.6143 25.745C19.517 25.3402 18.2919 25.1378 16.9389 25.1378C14.8082 25.1378 12.9013 25.6918 11.218 26.7997C9.5348 27.9077 8.20313 29.5057 7.22301 31.5938C6.25355 33.6818 5.76882 36.196 5.76882 39.1364C5.76882 42.0661 6.25888 44.5749 7.23899 46.663C8.21911 48.7511 9.56143 50.3544 11.266 51.473C12.9812 52.581 14.9414 53.1349 17.1467 53.1349C19.1602 53.1349 20.9393 52.6875 22.484 51.7926C24.0288 50.8977 25.2326 49.6193 26.0955 47.9574C26.9691 46.2955 27.3952 44.3192 27.3739 42.0288L28.3327 42.3324H17.8498V39.6477H30.2823V42.3324C30.2823 45.1236 29.7177 47.5366 28.5884 49.5714C27.4592 51.6062 25.9091 53.1776 23.9382 54.2855C21.9673 55.3935 19.7035 55.9474 17.1467 55.9474C14.2915 55.9474 11.7933 55.2603 9.65199 53.886C7.51065 52.5011 5.84339 50.5515 4.65021 48.0373C3.46768 45.5124 2.87642 42.5455 2.87642 39.1364C2.87642 36.5689 3.21733 34.2518 3.89915 32.185C4.58097 30.1183 5.5451 28.3498 6.79155 26.8796C8.04865 25.4094 9.5348 24.2855 11.25 23.5078C12.9652 22.7195 14.8615 22.3253 16.9389 22.3253C18.7287 22.3253 20.364 22.6076 21.8448 23.1722C23.3363 23.7369 24.6467 24.5146 25.7759 25.5053C26.9158 26.4854 27.848 27.62 28.5724 28.9091C29.3075 30.1875 29.8029 31.5511 30.0586 33H26.9904ZM37.1098 55.5V30.9545H39.8744V34.7259H40.0821C40.5722 33.4901 41.4244 32.494 42.6389 31.7376C43.8641 30.9705 45.249 30.587 46.7938 30.587C47.0281 30.587 47.2892 30.5923 47.5768 30.603C47.8644 30.6136 48.1041 30.6243 48.2959 30.6349V33.5273C48.1681 33.506 47.9443 33.4741 47.6247 33.4315C47.3051 33.3888 46.9589 33.3675 46.586 33.3675C45.3076 33.3675 44.1677 33.6392 43.1663 34.1825C42.1755 34.7152 41.3925 35.4556 40.8172 36.4038C40.2419 37.3519 39.9543 38.4332 39.9543 39.6477V55.5H37.1098ZM62.3264 56.0114C60.036 56.0114 58.0544 55.4787 56.3818 54.4134C54.7093 53.3374 53.4149 51.8512 52.4987 49.9549C51.5931 48.0479 51.1404 45.8533 51.1404 43.3711C51.1404 40.8995 51.5931 38.7049 52.4987 36.7873C53.4149 34.859 54.6773 33.3516 56.286 32.2649C57.9053 31.1676 59.7749 30.619 61.895 30.619C63.2267 30.619 64.5104 30.864 65.7462 31.354C66.982 31.8335 68.0899 32.5739 69.07 33.5753C70.0608 34.5661 70.8438 35.8178 71.4191 37.3306C71.9944 38.8327 72.282 40.6119 72.282 42.668V44.0742H53.1059V41.5653H69.3737C69.3737 39.9886 69.0541 38.5717 68.4149 37.3146C67.7863 36.0469 66.9074 35.0455 65.7781 34.3104C64.6595 33.5753 63.3651 33.2077 61.895 33.2077C60.3396 33.2077 58.9706 33.6232 57.7881 34.4542C56.6056 35.2852 55.6787 36.3825 55.0075 37.7461C54.347 39.1097 54.0115 40.6012 54.0008 42.2205V43.7227C54.0008 45.6722 54.3364 47.3768 55.0075 48.8363C55.6894 50.2852 56.6535 51.4091 57.8999 52.2081C59.1464 53.0071 60.6219 53.4066 62.3264 53.4066C63.4877 53.4066 64.5051 53.2255 65.3786 52.8633C66.2629 52.5011 67.0033 52.0163 67.5999 51.4091C68.2071 50.7912 68.6652 50.1147 68.9742 49.3796L71.6748 50.2585C71.3019 51.2919 70.6894 52.2454 69.8371 53.119C68.9955 53.9925 67.9408 54.6957 66.673 55.2283C65.4159 55.7504 63.9671 56.0114 62.3264 56.0114ZM85.4057 56.0593C83.9249 56.0593 82.5719 55.7717 81.3468 55.1964C80.1216 54.6104 79.1468 53.7688 78.4224 52.6715C77.698 51.5636 77.3358 50.2212 77.3358 48.6445C77.3358 47.43 77.5648 46.4073 78.0229 45.5763C78.481 44.7454 79.1309 44.0636 79.9725 43.5309C80.8141 42.9982 81.8102 42.5774 82.9608 42.2685C84.1113 41.9595 85.3791 41.7198 86.764 41.5494C88.1383 41.3789 89.2995 41.2298 90.2477 41.1019C91.2065 40.9741 91.9363 40.7717 92.437 40.4947C92.9377 40.2177 93.188 39.7702 93.188 39.1523V38.5771C93.188 36.9045 92.6873 35.5888 91.6859 34.63C90.6951 33.6605 89.2676 33.1758 87.4032 33.1758C85.6348 33.1758 84.1912 33.5646 83.0726 34.3423C81.9647 35.12 81.187 36.0362 80.7395 37.0909L78.0389 36.1161C78.5929 34.7738 79.3599 33.7031 80.34 32.9041C81.3201 32.0945 82.4174 31.5138 83.6319 31.1623C84.8464 30.8001 86.0769 30.619 87.3233 30.619C88.2608 30.619 89.2356 30.7415 90.2477 30.9865C91.2704 31.2315 92.2186 31.6577 93.0922 32.2649C93.9657 32.8615 94.6742 33.6978 95.2175 34.7738C95.7608 35.8391 96.0325 37.1921 96.0325 38.8327V55.5H93.188V51.6168H93.0123C92.6713 52.3413 92.1653 53.0444 91.4941 53.7262C90.823 54.408 89.9814 54.9673 88.9693 55.4041C87.9572 55.8409 86.7694 56.0593 85.4057 56.0593ZM85.7892 53.4545C87.302 53.4545 88.6124 53.119 89.7203 52.4478C90.8283 51.7766 91.6806 50.8871 92.2772 49.7791C92.8844 48.6605 93.188 47.43 93.188 46.0877V42.5401C92.975 42.7425 92.6181 42.9237 92.1174 43.0835C91.6273 43.2433 91.0574 43.3871 90.4075 43.5149C89.7683 43.6321 89.1291 43.7333 88.4899 43.8185C87.8507 43.9038 87.2754 43.9783 86.764 44.0423C85.3791 44.2127 84.1966 44.479 83.2164 44.8413C82.2363 45.2035 81.4853 45.7042 80.9632 46.3434C80.4412 46.9719 80.1802 47.7816 80.1802 48.7724C80.1802 50.2638 80.7129 51.4197 81.7782 52.2401C82.8436 53.0497 84.1806 53.4545 85.7892 53.4545ZM113.267 30.9545V33.4315H101.554V30.9545H113.267ZM105.213 25.0739H108.074V49.092C108.074 50.1147 108.249 50.919 108.601 51.505C108.952 52.0803 109.411 52.4904 109.975 52.7354C110.54 52.9698 111.142 53.087 111.781 53.087C112.154 53.087 112.473 53.0657 112.74 53.0231C113.006 52.9698 113.24 52.9165 113.443 52.8633L114.05 55.4361C113.773 55.5426 113.432 55.6385 113.027 55.7237C112.623 55.8196 112.122 55.8675 111.525 55.8675C110.481 55.8675 109.474 55.6385 108.505 55.1804C107.546 54.7223 106.758 54.0405 106.14 53.1349C105.522 52.2294 105.213 51.1055 105.213 49.7631V25.0739ZM319.578 55.5V30.9545H322.439V55.5H319.578ZM321.032 26.7358C320.447 26.7358 319.946 26.5387 319.53 26.1445C319.115 25.7397 318.907 25.255 318.907 24.6903C318.907 24.1257 319.115 23.6463 319.53 23.2521C319.946 22.8473 320.447 22.6449 321.032 22.6449C321.618 22.6449 322.119 22.8473 322.535 23.2521C322.95 23.6463 323.158 24.1257 323.158 24.6903C323.158 25.255 322.95 25.7397 322.535 26.1445C322.119 26.5387 321.618 26.7358 321.032 26.7358ZM346.453 36.3398L343.848 37.0749C343.592 36.3398 343.23 35.674 342.761 35.0774C342.293 34.4808 341.68 34.0067 340.924 33.6552C340.178 33.3036 339.251 33.1278 338.143 33.1278C336.481 33.1278 335.118 33.522 334.052 34.3104C332.987 35.0987 332.454 36.1161 332.454 37.3626C332.454 38.4173 332.816 39.2749 333.541 39.9354C334.276 40.5852 335.405 41.1019 336.929 41.4854L340.636 42.3963C342.692 42.897 344.232 43.6907 345.254 44.7773C346.288 45.864 346.804 47.2276 346.804 48.8683C346.804 50.2532 346.421 51.4837 345.654 52.5597C344.887 53.6357 343.816 54.4826 342.442 55.1005C341.078 55.7077 339.496 56.0114 337.696 56.0114C335.299 56.0114 333.323 55.4734 331.767 54.3974C330.212 53.3107 329.216 51.7447 328.779 49.6992L331.511 49.0281C331.863 50.4876 332.55 51.5902 333.573 52.3359C334.606 53.0817 335.965 53.4545 337.648 53.4545C339.533 53.4545 341.041 53.0337 342.17 52.1921C343.299 51.3398 343.864 50.2745 343.864 48.9961C343.864 48.0053 343.534 47.1744 342.873 46.5032C342.213 45.8214 341.211 45.3207 339.869 45.0011L335.858 44.0423C333.727 43.5309 332.151 42.7212 331.128 41.6133C330.105 40.5053 329.594 39.131 329.594 37.4904C329.594 36.1374 329.961 34.9496 330.696 33.9268C331.432 32.8935 332.444 32.0838 333.733 31.4979C335.022 30.9119 336.492 30.619 338.143 30.619C340.391 30.619 342.186 31.1303 343.528 32.1531C344.881 33.1651 345.856 34.5607 346.453 36.3398ZM2.91726 126.5V87.9545H12.1207V102.541H12.3089C12.6854 101.663 13.2186 100.816 13.9087 100C14.6114 99.1844 15.5022 98.5194 16.5813 98.005C17.6729 97.478 18.9779 97.2145 20.4961 97.2145C22.5037 97.2145 24.3795 97.7415 26.1236 98.7955C27.8802 99.8494 29.2981 101.474 30.3771 103.67C31.4562 105.866 31.9957 108.664 31.9957 112.064C31.9957 115.339 31.475 118.081 30.4336 120.289C29.4047 122.497 28.012 124.154 26.2553 125.258C24.5112 126.362 22.5727 126.914 20.4396 126.914C18.9841 126.914 17.7231 126.676 16.6566 126.199C15.5901 125.722 14.6929 125.095 13.9652 124.317C13.25 123.539 12.6979 122.704 12.3089 121.814H12.0266V126.5H2.91726ZM11.9325 112.045C11.9325 113.601 12.1396 114.956 12.5536 116.111C12.9802 117.265 13.5888 118.162 14.3793 118.802C15.1823 119.43 16.1422 119.743 17.2589 119.743C18.3881 119.743 19.348 119.43 20.1385 118.802C20.929 118.162 21.525 117.265 21.9265 116.111C22.3406 114.956 22.5476 113.601 22.5476 112.045C22.5476 110.49 22.3406 109.141 21.9265 107.999C21.525 106.857 20.929 105.973 20.1385 105.345C19.3606 104.718 18.4007 104.404 17.2589 104.404C16.1296 104.404 15.1697 104.712 14.3793 105.326C13.5888 105.941 12.9802 106.819 12.5536 107.961C12.1396 109.103 11.9325 110.464 11.9325 112.045ZM55.4703 114.022V97.5909H64.6549V126.5H55.8843V121.117H55.5832C54.9433 122.886 53.8517 124.292 52.3083 125.333C50.7776 126.362 48.9268 126.876 46.7561 126.876C44.7862 126.876 43.0547 126.425 41.5615 125.521C40.0684 124.618 38.9078 123.357 38.0796 121.738C37.2515 120.107 36.8312 118.2 36.8186 116.017V97.5909H46.0221V114.21C46.0347 115.778 46.4487 117.014 47.2643 117.918C48.0799 118.821 49.1903 119.273 50.5956 119.273C51.5116 119.273 52.3334 119.072 53.0612 118.67C53.8015 118.256 54.3849 117.66 54.8115 116.882C55.2507 116.092 55.4703 115.138 55.4703 114.022ZM70.513 126.5V97.5909H79.7164V126.5H70.513ZM75.1241 94.2219C73.8317 94.2219 72.7213 93.7953 71.7928 92.9421C70.8643 92.0763 70.4 91.0349 70.4 89.8178C70.4 88.6133 70.8643 87.5844 71.7928 86.7312C72.7213 85.8654 73.8317 85.4325 75.1241 85.4325C76.429 85.4325 77.5395 85.8654 78.4554 86.7312C79.3839 87.5844 79.8482 88.6133 79.8482 89.8178C79.8482 91.0349 79.3839 92.0763 78.4554 92.9421C77.5395 93.7953 76.429 94.2219 75.1241 94.2219ZM94.778 87.9545V126.5H85.5745V87.9545H94.778ZM116.954 97.5909V104.366H98.7163V97.5909H116.954ZM102.537 90.6648H111.74V117.409C111.74 117.974 111.828 118.432 112.004 118.783C112.192 119.122 112.462 119.367 112.813 119.517C113.165 119.655 113.585 119.724 114.074 119.724C114.426 119.724 114.796 119.693 115.185 119.63C115.586 119.555 115.887 119.492 116.088 119.442L117.481 126.086C117.042 126.211 116.421 126.368 115.618 126.556C114.827 126.745 113.88 126.864 112.776 126.914C110.617 127.014 108.767 126.763 107.223 126.161C105.693 125.546 104.519 124.593 103.704 123.3C102.901 122.008 102.512 120.383 102.537 118.426V90.6648ZM133.036 126.5V87.9545H142.24V102.541H142.428C142.805 101.663 143.338 100.816 144.028 100C144.731 99.1844 145.621 98.5194 146.7 98.005C147.792 97.478 149.097 97.2145 150.615 97.2145C152.623 97.2145 154.499 97.7415 156.243 98.7955C157.999 99.8494 159.417 101.474 160.496 103.67C161.575 105.866 162.115 108.664 162.115 112.064C162.115 115.339 161.594 118.081 160.553 120.289C159.524 122.497 158.131 124.154 156.374 125.258C154.63 126.362 152.692 126.914 150.559 126.914C149.103 126.914 147.842 126.676 146.776 126.199C145.709 125.722 144.812 125.095 144.084 124.317C143.369 123.539 142.817 122.704 142.428 121.814H142.146V126.5H133.036ZM142.052 112.045C142.052 113.601 142.259 114.956 142.673 116.111C143.099 117.265 143.708 118.162 144.498 118.802C145.301 119.43 146.261 119.743 147.378 119.743C148.507 119.743 149.467 119.43 150.258 118.802C151.048 118.162 151.644 117.265 152.046 116.111C152.46 114.956 152.667 113.601 152.667 112.045C152.667 110.49 152.46 109.141 152.046 107.999C151.644 106.857 151.048 105.973 150.258 105.345C149.48 104.718 148.52 104.404 147.378 104.404C146.249 104.404 145.289 104.712 144.498 105.326C143.708 105.941 143.099 106.819 142.673 107.961C142.259 109.103 142.052 110.464 142.052 112.045ZM171.634 137.341C170.529 137.341 169.488 137.253 168.509 137.077C167.531 136.914 166.69 136.695 165.987 136.419L168.02 129.737C168.923 130.038 169.739 130.214 170.467 130.264C171.207 130.314 171.841 130.195 172.368 129.907C172.907 129.631 173.321 129.135 173.61 128.42L173.967 127.554L163.691 97.5909H173.328L178.654 118.219H178.955L184.357 97.5909H194.049L183.152 129.267C182.625 130.848 181.879 132.24 180.912 133.445C179.959 134.662 178.723 135.616 177.205 136.306C175.699 136.996 173.842 137.341 171.634 137.341ZM222.441 137.943C219.693 137.943 217.34 137.56 215.383 136.795C213.426 136.03 211.889 134.982 210.772 133.652C209.655 132.322 208.984 130.816 208.758 129.135L217.472 128.646C217.635 129.235 217.936 129.75 218.376 130.189C218.827 130.628 219.411 130.967 220.126 131.205C220.854 131.444 221.707 131.563 222.686 131.563C224.229 131.563 225.503 131.186 226.506 130.434C227.523 129.693 228.031 128.395 228.031 126.538V121.456H227.711C227.347 122.347 226.795 123.144 226.055 123.846C225.314 124.549 224.392 125.101 223.288 125.502C222.196 125.904 220.942 126.105 219.524 126.105C217.416 126.105 215.483 125.615 213.727 124.637C211.983 123.645 210.584 122.115 209.53 120.044C208.488 117.962 207.968 115.283 207.968 112.008C207.968 108.633 208.507 105.853 209.586 103.67C210.665 101.474 212.077 99.8494 213.821 98.7955C215.578 97.7415 217.466 97.2145 219.486 97.2145C221.004 97.2145 222.303 97.478 223.382 98.005C224.474 98.5194 225.371 99.1844 226.073 100C226.776 100.816 227.309 101.663 227.673 102.541H227.937V97.5909H237.103V126.613C237.103 129.06 236.488 131.124 235.258 132.805C234.028 134.486 232.309 135.76 230.101 136.626C227.893 137.504 225.339 137.943 222.441 137.943ZM222.723 119.404C223.84 119.404 224.794 119.11 225.584 118.52C226.375 117.93 226.983 117.083 227.41 115.979C227.836 114.875 228.05 113.551 228.05 112.008C228.05 110.439 227.836 109.091 227.41 107.961C226.996 106.819 226.387 105.941 225.584 105.326C224.794 104.712 223.84 104.404 222.723 104.404C221.581 104.404 220.615 104.718 219.825 105.345C219.034 105.973 218.432 106.857 218.018 107.999C217.617 109.128 217.416 110.464 217.416 112.008C217.416 113.551 217.623 114.875 218.037 115.979C218.451 117.083 219.047 117.93 219.825 118.52C220.615 119.11 221.581 119.404 222.723 119.404ZM242.97 126.5V97.5909H251.91V102.861H252.211C252.738 100.954 253.598 99.5357 254.79 98.6072C255.982 97.6662 257.368 97.1957 258.949 97.1957C259.376 97.1957 259.815 97.227 260.267 97.2898C260.718 97.34 261.139 97.4215 261.528 97.5344V105.533C261.088 105.383 260.511 105.264 259.796 105.176C259.093 105.088 258.466 105.044 257.914 105.044C256.822 105.044 255.837 105.289 254.959 105.778C254.093 106.255 253.409 106.926 252.907 107.792C252.418 108.645 252.173 109.649 252.173 110.803V126.5H242.97ZM277.29 127.046C274.266 127.046 271.656 126.45 269.461 125.258C267.277 124.053 265.596 122.341 264.417 120.12C263.25 117.886 262.666 115.232 262.666 112.158C262.666 109.172 263.256 106.562 264.435 104.329C265.615 102.083 267.277 100.339 269.423 99.0966C271.569 97.8419 274.097 97.2145 277.008 97.2145C279.066 97.2145 280.948 97.5344 282.654 98.1744C284.361 98.8143 285.835 99.7616 287.077 101.016C288.319 102.271 289.285 103.821 289.975 105.665C290.666 107.497 291.011 109.599 291.011 111.97V114.266H265.885V108.921H282.447C282.435 107.942 282.202 107.07 281.751 106.305C281.299 105.54 280.678 104.944 279.887 104.517C279.109 104.078 278.212 103.858 277.196 103.858C276.167 103.858 275.245 104.09 274.429 104.555C273.614 105.006 272.968 105.627 272.491 106.418C272.014 107.196 271.763 108.08 271.738 109.072V114.511C271.738 115.69 271.97 116.726 272.434 117.616C272.899 118.495 273.557 119.179 274.411 119.668C275.264 120.157 276.28 120.402 277.46 120.402C278.275 120.402 279.015 120.289 279.68 120.063C280.345 119.837 280.916 119.505 281.393 119.066C281.87 118.627 282.228 118.087 282.466 117.447L290.917 117.692C290.565 119.586 289.794 121.236 288.602 122.642C287.422 124.034 285.873 125.12 283.953 125.898C282.033 126.663 279.812 127.046 277.29 127.046ZM303.861 126.989C302.016 126.989 300.379 126.682 298.948 126.067C297.531 125.44 296.408 124.499 295.579 123.244C294.764 121.977 294.356 120.389 294.356 118.482C294.356 116.876 294.638 115.521 295.203 114.417C295.768 113.313 296.546 112.416 297.537 111.725C298.528 111.035 299.67 110.515 300.962 110.163C302.255 109.799 303.635 109.555 305.103 109.429C306.747 109.279 308.07 109.122 309.074 108.959C310.078 108.783 310.806 108.538 311.257 108.225C311.722 107.899 311.954 107.441 311.954 106.851V106.757C311.954 105.791 311.621 105.044 310.956 104.517C310.291 103.99 309.394 103.727 308.265 103.727C307.048 103.727 306.069 103.99 305.329 104.517C304.588 105.044 304.118 105.772 303.917 106.7L295.429 106.399C295.68 104.643 296.326 103.074 297.367 101.694C298.421 100.301 299.864 99.2095 301.696 98.419C303.541 97.616 305.755 97.2145 308.34 97.2145C310.185 97.2145 311.885 97.4341 313.441 97.8732C314.996 98.2998 316.352 98.9272 317.506 99.7553C318.66 100.571 319.551 101.575 320.179 102.767C320.818 103.959 321.138 105.32 321.138 106.851V126.5H312.481V122.472H312.255C311.74 123.451 311.082 124.279 310.279 124.957C309.488 125.634 308.553 126.142 307.474 126.481C306.408 126.82 305.203 126.989 303.861 126.989ZM306.703 120.967C307.694 120.967 308.585 120.766 309.375 120.364C310.178 119.963 310.818 119.411 311.295 118.708C311.772 117.993 312.01 117.165 312.01 116.224V113.476C311.747 113.614 311.427 113.739 311.05 113.852C310.686 113.965 310.285 114.072 309.846 114.172C309.407 114.273 308.955 114.36 308.491 114.436C308.026 114.511 307.581 114.58 307.154 114.643C306.289 114.781 305.548 114.994 304.934 115.283C304.331 115.571 303.867 115.948 303.541 116.412C303.227 116.864 303.07 117.403 303.07 118.031C303.07 118.984 303.409 119.712 304.087 120.214C304.777 120.716 305.649 120.967 306.703 120.967ZM343.084 97.5909V104.366H324.846V97.5909H343.084ZM328.667 90.6648H337.87V117.409C337.87 117.974 337.958 118.432 338.134 118.783C338.322 119.122 338.592 119.367 338.943 119.517C339.294 119.655 339.715 119.724 340.204 119.724C340.555 119.724 340.926 119.693 341.315 119.63C341.716 119.555 342.017 119.492 342.218 119.442L343.611 126.086C343.172 126.211 342.55 126.368 341.747 126.556C340.957 126.745 340.01 126.864 338.905 126.914C336.747 127.014 334.897 126.763 333.353 126.161C331.822 125.546 330.649 124.593 329.834 123.3C329.031 122.008 328.642 120.383 328.667 118.426V90.6648Z" fill="#1A202C"/>
<path d="M131.472 55.5V22.7727H144.384C146.867 22.7727 148.981 23.2468 150.728 24.195C152.476 25.1325 153.807 26.4375 154.723 28.1101C155.65 29.772 156.114 31.6896 156.114 33.8629C156.114 36.0362 155.645 37.9538 154.707 39.6158C153.77 41.2777 152.412 42.5721 150.633 43.4989C148.864 44.4258 146.723 44.8892 144.209 44.8892H135.979V39.3441H143.09C144.422 39.3441 145.519 39.1151 146.382 38.657C147.255 38.1882 147.905 37.5437 148.331 36.7234C148.768 35.8924 148.987 34.9389 148.987 33.8629C148.987 32.7763 148.768 31.8281 148.331 31.0185C147.905 30.1982 147.255 29.5643 146.382 29.1168C145.508 28.6587 144.4 28.4297 143.058 28.4297H138.392V55.5H131.472ZM160.48 55.5V30.9545H167.08V35.2372H167.336C167.783 33.7138 168.534 32.5632 169.589 31.7855C170.644 30.9972 171.858 30.603 173.232 30.603C173.573 30.603 173.941 30.6243 174.335 30.6669C174.729 30.7095 175.075 30.7681 175.374 30.8427V36.8832C175.054 36.7873 174.612 36.7021 174.047 36.6275C173.483 36.5529 172.966 36.5156 172.497 36.5156C171.496 36.5156 170.601 36.734 169.813 37.1708C169.035 37.5969 168.417 38.1935 167.959 38.9606C167.512 39.7276 167.288 40.6119 167.288 41.6133V55.5H160.48ZM188.841 55.9794C186.359 55.9794 184.212 55.4521 182.401 54.3974C180.601 53.332 179.21 51.8512 178.23 49.9549C177.25 48.0479 176.76 45.8374 176.76 43.3232C176.76 40.7876 177.25 38.5717 178.23 36.6754C179.21 34.7685 180.601 33.2876 182.401 32.233C184.212 31.1676 186.359 30.6349 188.841 30.6349C191.323 30.6349 193.465 31.1676 195.265 32.233C197.076 33.2876 198.472 34.7685 199.452 36.6754C200.432 38.5717 200.922 40.7876 200.922 43.3232C200.922 45.8374 200.432 48.0479 199.452 49.9549C198.472 51.8512 197.076 53.332 195.265 54.3974C193.465 55.4521 191.323 55.9794 188.841 55.9794ZM188.873 50.706C190.002 50.706 190.945 50.3864 191.701 49.7472C192.458 49.0973 193.028 48.2131 193.411 47.0945C193.805 45.9759 194.003 44.7028 194.003 43.2752C194.003 41.8477 193.805 40.5746 193.411 39.456C193.028 38.3374 192.458 37.4531 191.701 36.8033C190.945 36.1534 190.002 35.8285 188.873 35.8285C187.733 35.8285 186.774 36.1534 185.997 36.8033C185.229 37.4531 184.649 38.3374 184.255 39.456C183.871 40.5746 183.679 41.8477 183.679 43.2752C183.679 44.7028 183.871 45.9759 184.255 47.0945C184.649 48.2131 185.229 49.0973 185.997 49.7472C186.774 50.3864 187.733 50.706 188.873 50.706ZM214.393 55.8995C212.529 55.8995 210.84 55.4201 209.328 54.4613C207.825 53.4918 206.632 52.0696 205.748 50.1946C204.874 48.3089 204.438 45.9972 204.438 43.2592C204.438 40.4467 204.89 38.1083 205.796 36.244C206.701 34.369 207.905 32.968 209.407 32.0412C210.92 31.1037 212.577 30.6349 214.377 30.6349C215.752 30.6349 216.897 30.8693 217.813 31.3381C218.74 31.7962 219.486 32.3714 220.05 33.0639C220.625 33.7457 221.062 34.4169 221.361 35.0774H221.568V22.7727H228.36V55.5H221.648V51.5689H221.361C221.041 52.2507 220.588 52.9272 220.002 53.5984C219.427 54.2589 218.676 54.8075 217.749 55.2443C216.833 55.6811 215.714 55.8995 214.393 55.8995ZM216.551 50.4822C217.648 50.4822 218.575 50.1839 219.331 49.5874C220.098 48.9801 220.684 48.1332 221.089 47.0465C221.504 45.9599 221.712 44.6868 221.712 43.2273C221.712 41.7678 221.51 40.5 221.105 39.424C220.7 38.348 220.114 37.517 219.347 36.9311C218.58 36.3452 217.648 36.0522 216.551 36.0522C215.432 36.0522 214.489 36.3558 213.722 36.9631C212.955 37.5703 212.374 38.4119 211.98 39.4879C211.586 40.5639 211.389 41.8104 211.389 43.2273C211.389 44.6548 211.586 45.9173 211.98 47.0146C212.385 48.1012 212.966 48.9535 213.722 49.5714C214.489 50.1786 215.432 50.4822 216.551 50.4822ZM249.697 45.049V30.9545H256.505V55.5H249.969V51.0415H249.713C249.159 52.4798 248.238 53.6357 246.949 54.5092C245.67 55.3828 244.11 55.8196 242.267 55.8196C240.626 55.8196 239.182 55.4467 237.936 54.701C236.689 53.9553 235.715 52.8952 235.012 51.521C234.319 50.1467 233.968 48.5007 233.957 46.5831V30.9545H240.764V45.3686C240.775 46.8175 241.164 47.9627 241.931 48.8043C242.698 49.646 243.726 50.0668 245.015 50.0668C245.835 50.0668 246.602 49.8803 247.316 49.5075C248.03 49.1239 248.605 48.5593 249.042 47.8136C249.49 47.0678 249.708 46.1463 249.697 45.049ZM273.04 55.9794C270.526 55.9794 268.363 55.4467 266.552 54.3814C264.752 53.3054 263.367 51.8139 262.397 49.907C261.439 48 260.959 45.8054 260.959 43.3232C260.959 40.8089 261.444 38.6037 262.413 36.7074C263.394 34.8004 264.784 33.3143 266.584 32.2489C268.385 31.1729 270.526 30.6349 273.008 30.6349C275.15 30.6349 277.025 31.0238 278.633 31.8015C280.242 32.5792 281.515 33.6712 282.453 35.0774C283.39 36.4837 283.907 38.1349 284.003 40.0312H277.579C277.397 38.8061 276.918 37.8207 276.14 37.0749C275.373 36.3185 274.367 35.9403 273.12 35.9403C272.065 35.9403 271.144 36.228 270.356 36.8033C269.578 37.3679 268.971 38.1935 268.534 39.2802C268.097 40.3668 267.879 41.6825 267.879 43.2273C267.879 44.7933 268.092 46.125 268.518 47.2223C268.955 48.3196 269.567 49.1559 270.356 49.7312C271.144 50.3065 272.065 50.5941 273.12 50.5941C273.898 50.5941 274.596 50.4343 275.214 50.1147C275.842 49.7951 276.359 49.3317 276.764 48.7244C277.179 48.1065 277.451 47.3661 277.579 46.5032H284.003C283.896 48.3782 283.385 50.0295 282.468 51.457C281.563 52.8739 280.311 53.9819 278.713 54.7809C277.115 55.5799 275.224 55.9794 273.04 55.9794ZM301.417 30.9545V36.0682H286.635V30.9545H301.417ZM289.991 25.0739H296.799V47.9574C296.799 48.5859 296.895 49.076 297.086 49.4276C297.278 49.7685 297.544 50.0082 297.885 50.1467C298.237 50.2852 298.642 50.3544 299.1 50.3544C299.419 50.3544 299.739 50.3278 300.059 50.2745C300.378 50.2106 300.623 50.1626 300.794 50.1307L301.864 55.1964C301.523 55.3029 301.044 55.4254 300.426 55.5639C299.808 55.7131 299.057 55.8036 298.173 55.8356C296.532 55.8995 295.094 55.6811 293.858 55.1804C292.633 54.6797 291.68 53.902 290.998 52.8473C290.316 51.7926 289.98 50.4609 289.991 48.8523V25.0739Z" fill="url(#paint0_linear_283_379)"/>
<path d="M375.484 97.5909V104.366H357.247V97.5909H375.484ZM361.067 90.6648H370.271V117.409C370.271 117.974 370.359 118.432 370.534 118.783C370.722 119.122 370.992 119.367 371.343 119.517C371.695 119.655 372.115 119.724 372.604 119.724C372.956 119.724 373.326 119.693 373.715 119.63C374.116 119.555 374.418 119.492 374.618 119.442L376.011 126.086C375.572 126.211 374.951 126.368 374.148 126.556C373.357 126.745 372.41 126.864 371.306 126.914C369.148 127.014 367.297 126.763 365.754 126.161C364.223 125.546 363.05 124.593 362.234 123.3C361.431 122.008 361.042 120.383 361.067 118.426V90.6648ZM393.383 127.046C390.359 127.046 387.749 126.45 385.553 125.258C383.37 124.053 381.689 122.341 380.509 120.12C379.342 117.886 378.759 115.232 378.759 112.158C378.759 109.172 379.349 106.562 380.528 104.329C381.708 102.083 383.37 100.339 385.516 99.0966C387.661 97.8419 390.19 97.2145 393.101 97.2145C395.158 97.2145 397.04 97.5344 398.747 98.1744C400.453 98.8143 401.928 99.7616 403.17 101.016C404.412 102.271 405.378 103.821 406.068 105.665C406.758 107.497 407.103 109.599 407.103 111.97V114.266H381.977V108.921H398.54C398.527 107.942 398.295 107.07 397.843 106.305C397.392 105.54 396.771 104.944 395.98 104.517C395.202 104.078 394.305 103.858 393.289 103.858C392.26 103.858 391.338 104.09 390.522 104.555C389.707 105.006 389.06 105.627 388.584 106.418C388.107 107.196 387.856 108.08 387.831 109.072V114.511C387.831 115.69 388.063 116.726 388.527 117.616C388.991 118.495 389.65 119.179 390.503 119.668C391.357 120.157 392.373 120.402 393.552 120.402C394.368 120.402 395.108 120.289 395.773 120.063C396.438 119.837 397.009 119.505 397.486 119.066C397.963 118.627 398.32 118.087 398.559 117.447L407.009 117.692C406.658 119.586 405.886 121.236 404.694 122.642C403.515 124.034 401.965 125.12 400.046 125.898C398.126 126.663 395.905 127.046 393.383 127.046ZM419.953 126.989C418.109 126.989 416.472 126.682 415.041 126.067C413.623 125.44 412.5 124.499 411.672 123.244C410.857 121.977 410.449 120.389 410.449 118.482C410.449 116.876 410.731 115.521 411.296 114.417C411.86 113.313 412.638 112.416 413.63 111.725C414.621 111.035 415.763 110.515 417.055 110.163C418.347 109.799 419.728 109.555 421.196 109.429C422.839 109.279 424.163 109.122 425.167 108.959C426.171 108.783 426.898 108.538 427.35 108.225C427.814 107.899 428.047 107.441 428.047 106.851V106.757C428.047 105.791 427.714 105.044 427.049 104.517C426.384 103.99 425.487 103.727 424.358 103.727C423.141 103.727 422.162 103.99 421.422 104.517C420.681 105.044 420.211 105.772 420.01 106.7L411.522 106.399C411.773 104.643 412.419 103.074 413.46 101.694C414.514 100.301 415.957 99.2095 417.789 98.419C419.634 97.616 421.848 97.2145 424.433 97.2145C426.277 97.2145 427.978 97.4341 429.533 97.8732C431.089 98.2998 432.444 98.9272 433.599 99.7553C434.753 100.571 435.644 101.575 436.271 102.767C436.911 103.959 437.231 105.32 437.231 106.851V126.5H428.574V122.472H428.348C427.833 123.451 427.174 124.279 426.371 124.957C425.581 125.634 424.646 126.142 423.567 126.481C422.501 126.82 421.296 126.989 419.953 126.989ZM422.795 120.967C423.787 120.967 424.678 120.766 425.468 120.364C426.271 119.963 426.911 119.411 427.388 118.708C427.865 117.993 428.103 117.165 428.103 116.224V113.476C427.839 113.614 427.52 113.739 427.143 113.852C426.779 113.965 426.378 114.072 425.939 114.172C425.499 114.273 425.048 114.36 424.583 114.436C424.119 114.511 423.674 114.58 423.247 114.643C422.381 114.781 421.641 114.994 421.026 115.283C420.424 115.571 419.96 115.948 419.634 116.412C419.32 116.864 419.163 117.403 419.163 118.031C419.163 118.984 419.502 119.712 420.179 120.214C420.869 120.716 421.741 120.967 422.795 120.967ZM442.859 126.5V97.5909H451.61V102.898H451.93C452.533 101.142 453.549 99.7553 454.979 98.739C456.41 97.7227 458.116 97.2145 460.099 97.2145C462.106 97.2145 463.825 97.7289 465.256 98.7578C466.686 99.7867 467.596 101.167 467.985 102.898H468.286C468.825 101.179 469.879 99.8055 471.448 98.7766C473.016 97.7352 474.867 97.2145 477 97.2145C479.735 97.2145 481.956 98.0928 483.663 99.8494C485.369 101.594 486.222 103.99 486.222 107.039V126.5H477.019V109.147C477.019 107.704 476.649 106.606 475.908 105.853C475.168 105.088 474.208 104.705 473.029 104.705C471.761 104.705 470.764 105.119 470.036 105.947C469.321 106.763 468.963 107.861 468.963 109.241V126.5H460.118V109.053C460.118 107.71 459.754 106.65 459.026 105.872C458.298 105.094 457.338 104.705 456.146 104.705C455.343 104.705 454.634 104.9 454.02 105.289C453.405 105.665 452.922 106.205 452.57 106.907C452.232 107.61 452.062 108.438 452.062 109.392V126.5H442.859ZM517.164 106.418L508.713 106.644C508.626 106.042 508.387 105.508 507.998 105.044C507.609 104.567 507.101 104.197 506.474 103.934C505.859 103.658 505.144 103.52 504.328 103.52C503.262 103.52 502.352 103.733 501.599 104.159C500.859 104.586 500.495 105.163 500.507 105.891C500.495 106.456 500.721 106.945 501.185 107.359C501.662 107.773 502.509 108.106 503.726 108.357L509.297 109.411C512.183 109.963 514.328 110.879 515.734 112.158C517.152 113.438 517.867 115.132 517.879 117.24C517.867 119.223 517.277 120.948 516.11 122.416C514.956 123.884 513.375 125.026 511.367 125.841C509.36 126.644 507.063 127.046 504.479 127.046C500.351 127.046 497.095 126.199 494.711 124.505C492.339 122.799 490.984 120.515 490.645 117.654L499.736 117.428C499.937 118.482 500.457 119.285 501.298 119.837C502.139 120.389 503.211 120.665 504.516 120.665C505.696 120.665 506.656 120.446 507.396 120.007C508.136 119.568 508.513 118.984 508.525 118.256C508.513 117.604 508.224 117.083 507.659 116.694C507.095 116.293 506.21 115.979 505.006 115.753L499.962 114.793C497.063 114.266 494.905 113.294 493.487 111.876C492.069 110.446 491.367 108.626 491.379 106.418C491.367 104.486 491.881 102.836 492.923 101.468C493.964 100.088 495.445 99.0339 497.364 98.3061C499.284 97.5784 501.549 97.2145 504.159 97.2145C508.074 97.2145 511.16 98.0363 513.419 99.68C515.677 101.311 516.926 103.557 517.164 106.418Z" fill="url(#paint1_linear_283_379)"/>
<path d="M3.96307 195.5H5.59943L8.48864 185.068H8.59091L11.4801 195.5H13.1165L16.696 182.409H15.0852L12.3494 193.071H12.2216L9.43466 182.409H7.64489L4.85795 193.071H4.73011L1.99432 182.409H0.383523L3.96307 195.5ZM21.669 195.705C23.6634 195.705 25.1207 194.707 25.581 193.224L24.1236 192.815C23.7401 193.838 22.8516 194.349 21.669 194.349C19.8984 194.349 18.6776 193.205 18.6072 191.102H25.7344V190.463C25.7344 186.807 23.5611 185.554 21.5156 185.554C18.8565 185.554 17.0923 187.651 17.0923 190.668C17.0923 193.685 18.831 195.705 21.669 195.705ZM18.6072 189.798C18.7095 188.271 19.7898 186.909 21.5156 186.909C23.152 186.909 24.2003 188.136 24.2003 189.798H18.6072ZM34.6001 189.594C34.6001 187.881 35.6932 186.909 37.1825 186.909C38.6016 186.909 39.4581 187.804 39.4581 189.364V195.5H40.9666V189.261C40.9666 186.737 39.6243 185.554 37.6172 185.554C36.0703 185.554 35.1882 186.2 34.728 187.216H34.6001V182.409H33.0916V195.5H34.6001V189.594ZM47.8429 195.705C49.8372 195.705 51.2946 194.707 51.7548 193.224L50.2974 192.815C49.9139 193.838 49.0254 194.349 47.8429 194.349C46.0723 194.349 44.8514 193.205 44.7811 191.102H51.9082V190.463C51.9082 186.807 49.7349 185.554 47.6895 185.554C45.0304 185.554 43.2662 187.651 43.2662 190.668C43.2662 193.685 45.0048 195.705 47.8429 195.705ZM44.7811 189.798C44.8833 188.271 45.9636 186.909 47.6895 186.909C49.3258 186.909 50.3741 188.136 50.3741 189.798H44.7811ZM55.7115 182.409H54.2029V195.5H55.7115V182.409ZM58.4744 199.182H59.983V193.991H60.1108C60.4432 194.528 61.0824 195.705 62.9744 195.705C65.429 195.705 67.142 193.736 67.142 190.616C67.142 187.523 65.429 185.554 62.9489 185.554C61.0312 185.554 60.4432 186.73 60.1108 187.241H59.9318V185.682H58.4744V199.182ZM59.9574 190.591C59.9574 188.392 60.929 186.909 62.7699 186.909C64.6875 186.909 65.6335 188.52 65.6335 190.591C65.6335 192.688 64.6619 194.349 62.7699 194.349C60.9545 194.349 59.9574 192.815 59.9574 190.591ZM74.7102 195.5H76.1676V193.991H76.3466C76.679 194.528 77.3182 195.705 79.2102 195.705C81.6648 195.705 83.3778 193.736 83.3778 190.616C83.3778 187.523 81.6648 185.554 79.1847 185.554C77.267 185.554 76.679 186.73 76.3466 187.241H76.2188V182.409H74.7102V195.5ZM76.1932 190.591C76.1932 188.392 77.1648 186.909 79.0057 186.909C80.9233 186.909 81.8693 188.52 81.8693 190.591C81.8693 192.688 80.8977 194.349 79.0057 194.349C77.1903 194.349 76.1932 192.815 76.1932 190.591ZM91.8729 191.486C91.8729 193.327 90.4666 194.17 89.3416 194.17C88.0888 194.17 87.1939 193.25 87.1939 191.818V185.682H85.6854V191.92C85.6854 194.426 87.0149 195.628 88.8558 195.628C90.3388 195.628 91.3104 194.835 91.7706 193.838H91.8729V195.5H93.3814V185.682H91.8729V191.486ZM96.1444 195.5H97.6529V185.682H96.1444V195.5ZM96.9114 184.045C97.4995 184.045 97.9853 183.585 97.9853 183.023C97.9853 182.46 97.4995 182 96.9114 182C96.3233 182 95.8375 182.46 95.8375 183.023C95.8375 183.585 96.3233 184.045 96.9114 184.045ZM101.924 182.409H100.416V195.5H101.924V182.409ZM108.395 195.705C110.287 195.705 110.926 194.528 111.258 193.991H111.437V195.5H112.895V182.409H111.386V187.241H111.258C110.926 186.73 110.338 185.554 108.42 185.554C105.94 185.554 104.227 187.523 104.227 190.616C104.227 193.736 105.94 195.705 108.395 195.705ZM108.599 194.349C106.707 194.349 105.736 192.688 105.736 190.591C105.736 188.52 106.682 186.909 108.599 186.909C110.44 186.909 111.412 188.392 111.412 190.591C111.412 192.815 110.415 194.349 108.599 194.349ZM123.819 195.73C125.532 195.73 126.427 194.81 126.733 194.17H126.81V195.5H128.319V189.031C128.319 185.912 125.941 185.554 124.688 185.554C123.205 185.554 121.518 186.065 120.751 187.855L122.182 188.366C122.515 187.651 123.301 186.884 124.739 186.884C126.126 186.884 126.81 187.619 126.81 188.878V188.929C126.81 189.658 126.069 189.594 124.279 189.824C122.457 190.06 120.469 190.463 120.469 192.713C120.469 194.631 121.952 195.73 123.819 195.73ZM124.049 194.375C122.847 194.375 121.978 193.838 121.978 192.79C121.978 191.639 123.026 191.281 124.202 191.128C124.841 191.051 126.555 190.872 126.81 190.565V191.946C126.81 193.173 125.839 194.375 124.049 194.375ZM132.581 189.594C132.581 187.881 133.642 186.909 135.086 186.909C136.486 186.909 137.336 187.823 137.336 189.364V195.5H138.845V189.261C138.845 186.756 137.509 185.554 135.521 185.554C134.038 185.554 133.118 186.219 132.657 187.216H132.529V185.682H131.072V195.5H132.581V189.594ZM145.309 195.705C147.201 195.705 147.84 194.528 148.172 193.991H148.351V195.5H149.809V182.409H148.3V187.241H148.172C147.84 186.73 147.252 185.554 145.334 185.554C142.854 185.554 141.141 187.523 141.141 190.616C141.141 193.736 142.854 195.705 145.309 195.705ZM145.513 194.349C143.621 194.349 142.65 192.688 142.65 190.591C142.65 188.52 143.596 186.909 145.513 186.909C147.354 186.909 148.326 188.392 148.326 190.591C148.326 192.815 147.329 194.349 145.513 194.349ZM157.844 195.5H159.352V189.364C159.352 187.925 160.4 186.909 161.577 186.909C162.721 186.909 163.52 187.657 163.52 188.776V195.5H165.054V189.108C165.054 187.842 165.846 186.909 167.227 186.909C168.301 186.909 169.221 187.478 169.221 188.929V195.5H170.73V188.929C170.73 186.621 169.49 185.554 167.738 185.554C166.332 185.554 165.303 186.2 164.798 187.216H164.696C164.21 186.168 163.354 185.554 162.062 185.554C160.784 185.554 159.838 186.168 159.429 187.216H159.301V185.682H157.844V195.5ZM176.377 195.73C178.09 195.73 178.985 194.81 179.292 194.17H179.369V195.5H180.877V189.031C180.877 185.912 178.499 185.554 177.247 185.554C175.764 185.554 174.076 186.065 173.309 187.855L174.741 188.366C175.073 187.651 175.86 186.884 177.298 186.884C178.685 186.884 179.369 187.619 179.369 188.878V188.929C179.369 189.658 178.627 189.594 176.838 189.824C175.016 190.06 173.028 190.463 173.028 192.713C173.028 194.631 174.511 195.73 176.377 195.73ZM176.607 194.375C175.406 194.375 174.536 193.838 174.536 192.79C174.536 191.639 175.585 191.281 176.761 191.128C177.4 191.051 179.113 190.872 179.369 190.565V191.946C179.369 193.173 178.397 194.375 176.607 194.375ZM185.139 189.594C185.139 187.881 186.2 186.909 187.645 186.909C189.045 186.909 189.895 187.823 189.895 189.364V195.5H191.403V189.261C191.403 186.756 190.067 185.554 188.08 185.554C186.597 185.554 185.676 186.219 185.216 187.216H185.088V185.682H183.631V195.5H185.139V189.594ZM197.049 195.73C198.762 195.73 199.657 194.81 199.964 194.17H200.041V195.5H201.549V189.031C201.549 185.912 199.171 185.554 197.919 185.554C196.436 185.554 194.748 186.065 193.981 187.855L195.413 188.366C195.745 187.651 196.531 186.884 197.97 186.884C199.357 186.884 200.041 187.619 200.041 188.878V188.929C200.041 189.658 199.299 189.594 197.509 189.824C195.688 190.06 193.7 190.463 193.7 192.713C193.7 194.631 195.183 195.73 197.049 195.73ZM197.279 194.375C196.078 194.375 195.208 193.838 195.208 192.79C195.208 191.639 196.257 191.281 197.433 191.128C198.072 191.051 199.785 190.872 200.041 190.565V191.946C200.041 193.173 199.069 194.375 197.279 194.375ZM208.266 199.386C210.618 199.386 212.51 198.312 212.51 195.781V185.682H211.053V187.241H210.899C210.567 186.73 209.953 185.554 208.036 185.554C205.555 185.554 203.842 187.523 203.842 190.54C203.842 193.608 205.632 195.347 208.01 195.347C209.928 195.347 210.541 194.222 210.874 193.685H211.001V195.679C211.001 197.315 209.851 198.057 208.266 198.057C206.482 198.057 205.856 197.117 205.453 196.574L204.251 197.418C204.865 198.447 206.073 199.386 208.266 199.386ZM208.214 193.991C206.322 193.991 205.351 192.56 205.351 190.514C205.351 188.52 206.297 186.909 208.214 186.909C210.055 186.909 211.027 188.392 211.027 190.514C211.027 192.688 210.03 193.991 208.214 193.991ZM219.388 195.705C221.382 195.705 222.839 194.707 223.3 193.224L221.842 192.815C221.459 193.838 220.57 194.349 219.388 194.349C217.617 194.349 216.396 193.205 216.326 191.102H223.453V190.463C223.453 186.807 221.28 185.554 219.234 185.554C216.575 185.554 214.811 187.651 214.811 190.668C214.811 193.685 216.55 195.705 219.388 195.705ZM216.326 189.798C216.428 188.271 217.509 186.909 219.234 186.909C220.871 186.909 221.919 188.136 221.919 189.798H216.326ZM233.7 195.73C235.413 195.73 236.308 194.81 236.614 194.17H236.691V195.5H238.2V189.031C238.2 185.912 235.822 185.554 234.569 185.554C233.086 185.554 231.398 186.065 230.631 187.855L232.063 188.366C232.396 187.651 233.182 186.884 234.62 186.884C236.007 186.884 236.691 187.619 236.691 188.878V188.929C236.691 189.658 235.95 189.594 234.16 189.824C232.338 190.06 230.35 190.463 230.35 192.713C230.35 194.631 231.833 195.73 233.7 195.73ZM233.93 194.375C232.728 194.375 231.859 193.838 231.859 192.79C231.859 191.639 232.907 191.281 234.083 191.128C234.722 191.051 236.435 190.872 236.691 190.565V191.946C236.691 193.173 235.719 194.375 233.93 194.375ZM250.285 185.682H248.189V183.33H246.68V185.682H245.197V186.96H246.68V193.097C246.68 194.81 248.061 195.628 249.339 195.628C249.902 195.628 250.26 195.526 250.464 195.449L250.157 194.094C250.03 194.119 249.825 194.17 249.493 194.17C248.828 194.17 248.189 193.966 248.189 192.688V186.96H250.285V185.682ZM256.566 195.705C258.56 195.705 260.017 194.707 260.477 193.224L259.02 192.815C258.637 193.838 257.748 194.349 256.566 194.349C254.795 194.349 253.574 193.205 253.504 191.102H260.631V190.463C260.631 186.807 258.458 185.554 256.412 185.554C253.753 185.554 251.989 187.651 251.989 190.668C251.989 193.685 253.727 195.705 256.566 195.705ZM253.504 189.798C253.606 188.271 254.686 186.909 256.412 186.909C258.048 186.909 259.097 188.136 259.097 189.798H253.504ZM265.815 195.73C267.528 195.73 268.423 194.81 268.73 194.17H268.806V195.5H270.315V189.031C270.315 185.912 267.937 185.554 266.684 185.554C265.201 185.554 263.514 186.065 262.747 187.855L264.178 188.366C264.511 187.651 265.297 186.884 266.735 186.884C268.122 186.884 268.806 187.619 268.806 188.878V188.929C268.806 189.658 268.065 189.594 266.275 189.824C264.453 190.06 262.465 190.463 262.465 192.713C262.465 194.631 263.948 195.73 265.815 195.73ZM266.045 194.375C264.843 194.375 263.974 193.838 263.974 192.79C263.974 191.639 265.022 191.281 266.198 191.128C266.838 191.051 268.551 190.872 268.806 190.565V191.946C268.806 193.173 267.835 194.375 266.045 194.375ZM273.068 195.5H274.577V189.364C274.577 187.925 275.625 186.909 276.801 186.909C277.945 186.909 278.744 187.657 278.744 188.776V195.5H280.278V189.108C280.278 187.842 281.071 186.909 282.452 186.909C283.526 186.909 284.446 187.478 284.446 188.929V195.5H285.955V188.929C285.955 186.621 284.714 185.554 282.963 185.554C281.557 185.554 280.528 186.2 280.023 187.216H279.92C279.435 186.168 278.578 185.554 277.287 185.554C276.009 185.554 275.062 186.168 274.653 187.216H274.526V185.682H273.068V195.5ZM297.764 195.705C300.423 195.705 302.213 193.685 302.213 190.642C302.213 187.574 300.423 185.554 297.764 185.554C295.105 185.554 293.315 187.574 293.315 190.642C293.315 193.685 295.105 195.705 297.764 195.705ZM297.764 194.349C295.744 194.349 294.824 192.611 294.824 190.642C294.824 188.673 295.744 186.909 297.764 186.909C299.784 186.909 300.704 188.673 300.704 190.642C300.704 192.611 299.784 194.349 297.764 194.349ZM308.888 185.682H306.689V184.685C306.689 183.713 307.098 183.202 308.095 183.202C308.53 183.202 308.785 183.304 308.939 183.355L309.373 182.051C309.143 181.949 308.683 181.795 307.942 181.795C306.535 181.795 305.18 182.639 305.18 184.327V185.682H303.595V186.96H305.18V195.5H306.689V186.96H308.888V185.682ZM318.289 195.5H319.772L321.919 187.957H322.073L324.221 195.5H325.703L328.695 185.682H327.11L324.988 193.173H324.885L322.814 185.682H321.203L319.107 193.199H319.005L316.882 185.682H315.297L318.289 195.5ZM334.344 195.705C337.003 195.705 338.793 193.685 338.793 190.642C338.793 187.574 337.003 185.554 334.344 185.554C331.685 185.554 329.895 187.574 329.895 190.642C329.895 193.685 331.685 195.705 334.344 195.705ZM334.344 194.349C332.324 194.349 331.404 192.611 331.404 190.642C331.404 188.673 332.324 186.909 334.344 186.909C336.364 186.909 337.284 188.673 337.284 190.642C337.284 192.611 336.364 194.349 334.344 194.349ZM341.096 195.5H342.604V189.287C342.604 187.957 343.652 186.986 345.084 186.986C345.487 186.986 345.902 187.062 346.005 187.088V185.554C345.832 185.541 345.436 185.528 345.212 185.528C344.036 185.528 343.013 186.193 342.655 187.165H342.553V185.682H341.096V195.5ZM349.301 182.409H347.793V195.5H349.301V182.409ZM355.772 195.705C357.664 195.705 358.303 194.528 358.635 193.991H358.814V195.5H360.272V182.409H358.763V187.241H358.635C358.303 186.73 357.715 185.554 355.797 185.554C353.317 185.554 351.604 187.523 351.604 190.616C351.604 193.736 353.317 195.705 355.772 195.705ZM355.976 194.349C354.084 194.349 353.113 192.688 353.113 190.591C353.113 188.52 354.059 186.909 355.976 186.909C357.817 186.909 358.789 188.392 358.789 190.591C358.789 192.815 357.792 194.349 355.976 194.349ZM368.869 189.185H363.142V190.591H368.869V189.185ZM375.512 195.705C377.685 195.705 379.117 194.375 379.373 192.636H377.864C377.583 193.71 376.688 194.349 375.512 194.349C373.722 194.349 372.572 192.866 372.572 190.591C372.572 188.366 373.748 186.909 375.512 186.909C376.841 186.909 377.634 187.727 377.864 188.622H379.373C379.117 186.781 377.557 185.554 375.486 185.554C372.827 185.554 371.063 187.651 371.063 190.642C371.063 193.582 372.751 195.705 375.512 195.705ZM383.086 182.409H381.578V195.5H383.086V182.409ZM388.739 195.73C390.452 195.73 391.347 194.81 391.653 194.17H391.73V195.5H393.239V189.031C393.239 185.912 390.861 185.554 389.608 185.554C388.125 185.554 386.438 186.065 385.67 187.855L387.102 188.366C387.435 187.651 388.221 186.884 389.659 186.884C391.046 186.884 391.73 187.619 391.73 188.878V188.929C391.73 189.658 390.989 189.594 389.199 189.824C387.377 190.06 385.389 190.463 385.389 192.713C385.389 194.631 386.872 195.73 388.739 195.73ZM388.969 194.375C387.767 194.375 386.898 193.838 386.898 192.79C386.898 191.639 387.946 191.281 389.122 191.128C389.761 191.051 391.474 190.872 391.73 190.565V191.946C391.73 193.173 390.759 194.375 388.969 194.375ZM402.947 187.881C402.474 186.487 401.412 185.554 399.469 185.554C397.398 185.554 395.864 186.73 395.864 188.392C395.864 189.747 396.67 190.655 398.472 191.077L400.108 191.46C401.099 191.69 401.566 192.163 401.566 192.841C401.566 193.685 400.671 194.375 399.265 194.375C398.031 194.375 397.258 193.844 396.989 192.79L395.557 193.148C395.909 194.816 397.283 195.705 399.29 195.705C401.572 195.705 403.126 194.458 403.126 192.764C403.126 191.396 402.269 190.533 400.518 190.105L399.06 189.747C397.897 189.46 397.373 189.07 397.373 188.315C397.373 187.472 398.268 186.858 399.469 186.858C400.786 186.858 401.329 187.587 401.591 188.264L402.947 187.881ZM412.351 187.881C411.878 186.487 410.817 185.554 408.874 185.554C406.803 185.554 405.268 186.73 405.268 188.392C405.268 189.747 406.074 190.655 407.876 191.077L409.513 191.46C410.504 191.69 410.97 192.163 410.97 192.841C410.97 193.685 410.075 194.375 408.669 194.375C407.435 194.375 406.662 193.844 406.393 192.79L404.962 193.148C405.313 194.816 406.688 195.705 408.695 195.705C410.977 195.705 412.53 194.458 412.53 192.764C412.53 191.396 411.673 190.533 409.922 190.105L408.464 189.747C407.301 189.46 406.777 189.07 406.777 188.315C406.777 187.472 407.672 186.858 408.874 186.858C410.19 186.858 410.734 187.587 410.996 188.264L412.351 187.881ZM423.57 195.705C425.463 195.705 426.102 194.528 426.434 193.991H426.613V195.5H428.07V182.409H426.562V187.241H426.434C426.102 186.73 425.514 185.554 423.596 185.554C421.116 185.554 419.403 187.523 419.403 190.616C419.403 193.736 421.116 195.705 423.57 195.705ZM423.775 194.349C421.883 194.349 420.911 192.688 420.911 190.591C420.911 188.52 421.857 186.909 423.775 186.909C425.616 186.909 426.588 188.392 426.588 190.591C426.588 192.815 425.59 194.349 423.775 194.349ZM435.159 195.705C437.154 195.705 438.611 194.707 439.071 193.224L437.614 192.815C437.23 193.838 436.342 194.349 435.159 194.349C433.389 194.349 432.168 193.205 432.097 191.102H439.225V190.463C439.225 186.807 437.051 185.554 435.006 185.554C432.347 185.554 430.583 187.651 430.583 190.668C430.583 193.685 432.321 195.705 435.159 195.705ZM432.097 189.798C432.2 188.271 433.28 186.909 435.006 186.909C436.642 186.909 437.691 188.136 437.691 189.798H432.097ZM449.249 185.682H447.613L444.902 193.506H444.8L442.09 185.682H440.453L444.084 195.5H445.618L449.249 185.682ZM455.005 195.705C456.999 195.705 458.457 194.707 458.917 193.224L457.46 192.815C457.076 193.838 456.188 194.349 455.005 194.349C453.234 194.349 452.013 193.205 451.943 191.102H459.07V190.463C459.07 186.807 456.897 185.554 454.852 185.554C452.192 185.554 450.428 187.651 450.428 190.668C450.428 193.685 452.167 195.705 455.005 195.705ZM451.943 189.798C452.045 188.271 453.126 186.909 454.852 186.909C456.488 186.909 457.536 188.136 457.536 189.798H451.943ZM462.874 182.409H461.365V195.5H462.874V182.409ZM469.625 195.705C472.284 195.705 474.074 193.685 474.074 190.642C474.074 187.574 472.284 185.554 469.625 185.554C466.966 185.554 465.176 187.574 465.176 190.642C465.176 193.685 466.966 195.705 469.625 195.705ZM469.625 194.349C467.605 194.349 466.685 192.611 466.685 190.642C466.685 188.673 467.605 186.909 469.625 186.909C471.645 186.909 472.566 188.673 472.566 190.642C472.566 192.611 471.645 194.349 469.625 194.349ZM476.377 199.182H477.885V193.991H478.013C478.346 194.528 478.985 195.705 480.877 195.705C483.331 195.705 485.044 193.736 485.044 190.616C485.044 187.523 483.331 185.554 480.851 185.554C478.934 185.554 478.346 186.73 478.013 187.241H477.834V185.682H476.377V199.182ZM477.86 190.591C477.86 188.392 478.831 186.909 480.672 186.909C482.59 186.909 483.536 188.52 483.536 190.591C483.536 192.688 482.564 194.349 480.672 194.349C478.857 194.349 477.86 192.815 477.86 190.591ZM491.462 195.705C493.456 195.705 494.914 194.707 495.374 193.224L493.917 192.815C493.533 193.838 492.645 194.349 491.462 194.349C489.691 194.349 488.471 193.205 488.4 191.102H495.527V190.463C495.527 186.807 493.354 185.554 491.309 185.554C488.65 185.554 486.885 187.651 486.885 190.668C486.885 193.685 488.624 195.705 491.462 195.705ZM488.4 189.798C488.502 188.271 489.583 186.909 491.309 186.909C492.945 186.909 493.993 188.136 493.993 189.798H488.4ZM497.822 195.5H499.331V189.287C499.331 187.957 500.379 186.986 501.811 186.986C502.213 186.986 502.629 187.062 502.731 187.088V185.554C502.559 185.541 502.162 185.528 501.939 185.528C500.762 185.528 499.74 186.193 499.382 187.165H499.279V185.682H497.822V195.5ZM511.474 187.881C511.001 186.487 509.94 185.554 507.997 185.554C505.926 185.554 504.392 186.73 504.392 188.392C504.392 189.747 505.197 190.655 506.999 191.077L508.636 191.46C509.627 191.69 510.093 192.163 510.093 192.841C510.093 193.685 509.198 194.375 507.792 194.375C506.558 194.375 505.785 193.844 505.517 192.79L504.085 193.148C504.436 194.816 505.811 195.705 507.818 195.705C510.1 195.705 511.653 194.458 511.653 192.764C511.653 191.396 510.796 190.533 509.045 190.105L507.588 189.747C506.424 189.46 505.9 189.07 505.9 188.315C505.9 187.472 506.795 186.858 507.997 186.858C509.313 186.858 509.857 187.587 510.119 188.264L511.474 187.881ZM5.65057 221.682H3.55398V219.33H2.04545V221.682H0.5625V222.96H2.04545V229.097C2.04545 230.81 3.42614 231.628 4.70455 231.628C5.26705 231.628 5.625 231.526 5.82955 231.449L5.52273 230.094C5.39489 230.119 5.19034 230.17 4.85795 230.17C4.19318 230.17 3.55398 229.966 3.55398 228.688V222.96H5.65057V221.682ZM11.8029 231.705C14.462 231.705 16.2518 229.685 16.2518 226.642C16.2518 223.574 14.462 221.554 11.8029 221.554C9.14382 221.554 7.35405 223.574 7.35405 226.642C7.35405 229.685 9.14382 231.705 11.8029 231.705ZM11.8029 230.349C9.78303 230.349 8.86257 228.611 8.86257 226.642C8.86257 224.673 9.78303 222.909 11.8029 222.909C13.8228 222.909 14.7433 224.673 14.7433 226.642C14.7433 228.611 13.8228 230.349 11.8029 230.349ZM23.8216 231.5H25.2789V229.991H25.4579C25.7903 230.528 26.4295 231.705 28.3216 231.705C30.7761 231.705 32.4892 229.736 32.4892 226.616C32.4892 223.523 30.7761 221.554 28.296 221.554C26.3784 221.554 25.7903 222.73 25.4579 223.241H25.3301V218.409H23.8216V231.5ZM25.3045 226.591C25.3045 224.392 26.2761 222.909 28.117 222.909C30.0346 222.909 30.9806 224.52 30.9806 226.591C30.9806 228.688 30.0091 230.349 28.117 230.349C26.3017 230.349 25.3045 228.815 25.3045 226.591ZM34.7967 231.5H36.3052V225.287C36.3052 223.957 37.3535 222.986 38.7853 222.986C39.188 222.986 39.6035 223.062 39.7058 223.088V221.554C39.5332 221.541 39.1369 221.528 38.9132 221.528C37.737 221.528 36.7143 222.193 36.3564 223.165H36.2541V221.682H34.7967V231.5ZM41.494 231.5H43.0025V221.682H41.494V231.5ZM42.261 220.045C42.8491 220.045 43.3349 219.585 43.3349 219.023C43.3349 218.46 42.8491 218 42.261 218C41.6729 218 41.1871 218.46 41.1871 219.023C41.1871 219.585 41.6729 220.045 42.261 220.045ZM47.274 225.594C47.274 223.881 48.335 222.909 49.7797 222.909C51.1795 222.909 52.0297 223.823 52.0297 225.364V231.5H53.5382V225.261C53.5382 222.756 52.2022 221.554 50.2143 221.554C48.7314 221.554 47.8109 222.219 47.3507 223.216H47.2228V221.682H45.7654V231.5H47.274V225.594ZM60.2578 235.386C62.6101 235.386 64.5021 234.312 64.5021 231.781V221.682H63.0447V223.241H62.8913C62.5589 222.73 61.9453 221.554 60.0277 221.554C57.5476 221.554 55.8345 223.523 55.8345 226.54C55.8345 229.608 57.6243 231.347 60.0021 231.347C61.9197 231.347 62.5334 230.222 62.8658 229.685H62.9936V231.679C62.9936 233.315 61.843 234.057 60.2578 234.057C58.4744 234.057 57.848 233.117 57.4453 232.574L56.2436 233.418C56.8572 234.447 58.0653 235.386 60.2578 235.386ZM60.2067 229.991C58.3146 229.991 57.343 228.56 57.343 226.514C57.343 224.52 58.2891 222.909 60.2067 222.909C62.0476 222.909 63.0192 224.392 63.0192 226.514C63.0192 228.688 62.022 229.991 60.2067 229.991ZM73.2976 235.182C74.6591 235.182 75.6179 234.46 76.1868 232.932L80.3672 221.707L78.718 221.682L76.0078 229.506H75.9055L73.1953 221.682H71.5589L75.1896 231.551L74.9084 232.318C74.3587 233.814 73.6811 233.955 72.5817 233.673L72.1982 235.003C72.3516 235.08 72.7862 235.182 73.2976 235.182ZM86.0002 231.705C88.6593 231.705 90.449 229.685 90.449 226.642C90.449 223.574 88.6593 221.554 86.0002 221.554C83.3411 221.554 81.5513 223.574 81.5513 226.642C81.5513 229.685 83.3411 231.705 86.0002 231.705ZM86.0002 230.349C83.9803 230.349 83.0598 228.611 83.0598 226.642C83.0598 224.673 83.9803 222.909 86.0002 222.909C88.0201 222.909 88.9405 224.673 88.9405 226.642C88.9405 228.611 88.0201 230.349 86.0002 230.349ZM98.9393 227.486C98.9393 229.327 97.533 230.17 96.408 230.17C95.1552 230.17 94.2603 229.25 94.2603 227.818V221.682H92.7518V227.92C92.7518 230.426 94.0813 231.628 95.9222 231.628C97.4052 231.628 98.3768 230.835 98.837 229.838H98.9393V231.5H100.448V221.682H98.9393V227.486ZM103.211 231.5H104.719V225.287C104.719 223.957 105.768 222.986 107.199 222.986C107.602 222.986 108.018 223.062 108.12 223.088V221.554C107.947 221.541 107.551 221.528 107.327 221.528C106.151 221.528 105.128 222.193 104.77 223.165H104.668V221.682H103.211V231.5ZM122.999 221.682H121.363L118.652 229.506H118.55L115.84 221.682H114.203L117.834 231.5H119.368L122.999 221.682ZM124.99 231.5H126.499V221.682H124.99V231.5ZM125.757 220.045C126.345 220.045 126.831 219.585 126.831 219.023C126.831 218.46 126.345 218 125.757 218C125.169 218 124.683 218.46 124.683 219.023C124.683 219.585 125.169 220.045 125.757 220.045ZM136.216 223.881C135.743 222.487 134.682 221.554 132.739 221.554C130.668 221.554 129.134 222.73 129.134 224.392C129.134 225.747 129.939 226.655 131.742 227.077L133.378 227.46C134.369 227.69 134.835 228.163 134.835 228.841C134.835 229.685 133.941 230.375 132.534 230.375C131.301 230.375 130.527 229.844 130.259 228.79L128.827 229.148C129.178 230.816 130.553 231.705 132.56 231.705C134.842 231.705 136.395 230.458 136.395 228.764C136.395 227.396 135.539 226.533 133.787 226.105L132.33 225.747C131.166 225.46 130.642 225.07 130.642 224.315C130.642 223.472 131.537 222.858 132.739 222.858C134.056 222.858 134.599 223.587 134.861 224.264L136.216 223.881ZM138.666 231.5H140.174V221.682H138.666V231.5ZM139.433 220.045C140.021 220.045 140.507 219.585 140.507 219.023C140.507 218.46 140.021 218 139.433 218C138.845 218 138.359 218.46 138.359 219.023C138.359 219.585 138.845 220.045 139.433 220.045ZM146.926 231.705C149.585 231.705 151.375 229.685 151.375 226.642C151.375 223.574 149.585 221.554 146.926 221.554C144.267 221.554 142.477 223.574 142.477 226.642C142.477 229.685 144.267 231.705 146.926 231.705ZM146.926 230.349C144.906 230.349 143.986 228.611 143.986 226.642C143.986 224.673 144.906 222.909 146.926 222.909C148.946 222.909 149.866 224.673 149.866 226.642C149.866 228.611 148.946 230.349 146.926 230.349ZM155.186 225.594C155.186 223.881 156.247 222.909 157.692 222.909C159.092 222.909 159.942 223.823 159.942 225.364V231.5H161.45V225.261C161.45 222.756 160.114 221.554 158.126 221.554C156.643 221.554 155.723 222.219 155.263 223.216H155.135V221.682H153.678V231.5H155.186V225.594ZM173.539 221.682H171.443V219.33H169.934V221.682H168.451V222.96H169.934V229.097C169.934 230.81 171.315 231.628 172.593 231.628C173.156 231.628 173.514 231.526 173.718 231.449L173.411 230.094C173.284 230.119 173.079 230.17 172.747 230.17C172.082 230.17 171.443 229.966 171.443 228.688V222.96H173.539V221.682ZM179.692 231.705C182.351 231.705 184.14 229.685 184.14 226.642C184.14 223.574 182.351 221.554 179.692 221.554C177.032 221.554 175.243 223.574 175.243 226.642C175.243 229.685 177.032 231.705 179.692 231.705ZM179.692 230.349C177.672 230.349 176.751 228.611 176.751 226.642C176.751 224.673 177.672 222.909 179.692 222.909C181.711 222.909 182.632 224.673 182.632 226.642C182.632 228.611 181.711 230.349 179.692 230.349ZM193.014 218.409H191.506V231.5H193.014V218.409ZM195.777 231.5H197.286V221.682H195.777V231.5ZM196.544 220.045C197.132 220.045 197.618 219.585 197.618 219.023C197.618 218.46 197.132 218 196.544 218C195.956 218 195.47 218.46 195.47 219.023C195.47 219.585 195.956 220.045 196.544 220.045ZM204.421 221.682H202.222V220.685C202.222 219.713 202.631 219.202 203.628 219.202C204.063 219.202 204.319 219.304 204.472 219.355L204.907 218.051C204.676 217.949 204.216 217.795 203.475 217.795C202.069 217.795 200.713 218.639 200.713 220.327V221.682H199.128V222.96H200.713V231.5H202.222V222.96H204.421V221.682ZM210.247 231.705C212.241 231.705 213.699 230.707 214.159 229.224L212.702 228.815C212.318 229.838 211.43 230.349 210.247 230.349C208.477 230.349 207.256 229.205 207.185 227.102H214.312V226.463C214.312 222.807 212.139 221.554 210.094 221.554C207.435 221.554 205.67 223.651 205.67 226.668C205.67 229.685 207.409 231.705 210.247 231.705ZM207.185 225.798C207.288 224.271 208.368 222.909 210.094 222.909C211.73 222.909 212.778 224.136 212.778 225.798H207.185Z" fill="#4A5568"/>
<defs>
<linearGradient id="paint0_linear_283_379" x1="260" y1="0.5" x2="260" y2="142.5" gradientUnits="userSpaceOnUse">
<stop stop-color="#DE4396"/>
<stop offset="1" stop-color="#0D1C9F" stop-opacity="0"/>
</linearGradient>
<linearGradient id="paint1_linear_283_379" x1="520" y1="0.5" x2="447.828" y2="264.792" gradientUnits="userSpaceOnUse">
<stop stop-color="#F7666F"/>
<stop offset="1" stop-color="#406AFF"/>
</linearGradient>
</defs>
</svg>
