<svg width="78" height="24" viewBox="0 0 78 24" fill="none" xmlns="http://www.w3.org/2000/svg">
<path d="M5.304 21.16C4.712 21.16 4.104 20.976 3.48 20.608C2.872 20.24 2.248 19.64 1.608 18.808C1.112 18.152 0.752 17.4 0.528 16.552C0.32 15.704 0.216 14.864 0.216 14.032C0.216 13.632 0.24 13.24 0.288 12.856C0.352 12.424 0.472 11.936 0.648 11.392C0.824 10.832 1.008 10.376 1.2 10.024C1.264 9.896 1.352 9.768 1.464 9.64C1.592 9.512 1.672 9.448 1.704 9.448C1.72 9.448 1.728 9.464 1.728 9.496C1.728 9.56 1.648 9.752 1.488 10.072C1.248 10.552 1.072 11.064 0.96 11.608C0.848 12.136 0.792 12.68 0.792 13.24C0.792 14.264 0.952 15.272 1.272 16.264C1.608 17.272 2.048 18.136 2.592 18.856C3.104 19.544 3.6 20.04 4.08 20.344C4.576 20.648 5.04 20.8 5.472 20.8C6.112 20.8 6.68 20.552 7.176 20.056C7.688 19.56 8.112 18.952 8.448 18.232C8.688 17.736 8.888 17.08 9.048 16.264C9.208 15.464 9.328 14.568 9.408 13.576C9.504 12.568 9.552 11.528 9.552 10.456C9.552 9.368 9.504 8.296 9.408 7.24C9.312 6.184 9.152 5.192 8.928 4.264C8.72 3.336 8.456 2.536 8.136 1.864C7.816 1.192 7.424 0.711999 6.96 0.423999C6.832 0.343999 6.712 0.303999 6.6 0.303999C6.472 0.303999 6.344 0.343999 6.216 0.423999C6.104 0.503999 6 0.607999 5.904 0.735999C5.696 1.024 5.544 1.424 5.448 1.936C5.352 2.432 5.304 2.968 5.304 3.544C5.304 4.216 5.36 4.896 5.472 5.584C5.584 6.256 5.736 6.856 5.928 7.384C6.136 7.896 6.368 8.256 6.624 8.464C6.768 8.592 6.904 8.656 7.032 8.656C7.144 8.656 7.232 8.632 7.296 8.584C7.36 8.52 7.424 8.488 7.488 8.488C7.6 8.488 7.616 8.536 7.536 8.632C7.456 8.712 7.336 8.792 7.176 8.872C7.016 8.952 6.84 8.984 6.648 8.968C6.216 8.92 5.856 8.68 5.568 8.248C5.28 7.816 5.064 7.272 4.92 6.616C4.776 5.944 4.704 5.256 4.704 4.552C4.704 3.8 4.776 3.08 4.92 2.392C5.08 1.704 5.312 1.144 5.616 0.711999C5.936 0.279999 6.32 0.0639992 6.768 0.0639992C6.992 0.0639992 7.208 0.111999 7.416 0.207999C8.024 0.463999 8.52 0.96 8.904 1.696C9.304 2.416 9.608 3.28 9.816 4.288C10.04 5.28 10.192 6.32 10.272 7.408C10.368 8.496 10.416 9.544 10.416 10.552C10.416 11.368 10.392 12.112 10.344 12.784C10.312 13.456 10.272 14 10.224 14.416C10.128 15.296 9.936 16.136 9.648 16.936C9.36 17.752 9 18.472 8.568 19.096C8.136 19.736 7.64 20.24 7.08 20.608C6.52 20.976 5.928 21.16 5.304 21.16ZM10.5356 19.48C10.3756 19.48 10.2476 19.432 10.1516 19.336C10.0396 19.24 10.0236 19.128 10.1036 19C10.3276 18.664 10.5436 18.184 10.7516 17.56C10.9436 16.952 11.1116 16.312 11.2556 15.64C11.4156 14.968 11.5436 14.36 11.6396 13.816C11.7516 13.256 11.8316 12.864 11.8796 12.64C11.5916 12.368 11.4476 12.064 11.4476 11.728C11.4476 11.472 11.5036 11.256 11.6156 11.08C11.7436 10.904 11.8396 10.824 11.9036 10.84C11.9356 10.84 11.9756 10.856 12.0236 10.888C12.0876 10.904 12.1196 10.928 12.1196 10.96C12.2156 10.208 12.2956 9.464 12.3596 8.728C12.4236 7.976 12.4556 7.288 12.4556 6.664C12.4556 6.152 12.4316 5.696 12.3836 5.296C12.3356 4.896 12.2636 4.576 12.1676 4.336C12.0716 4.096 12.0236 3.912 12.0236 3.784C12.0236 3.608 12.0716 3.52 12.1676 3.52C12.2796 3.52 12.3676 3.592 12.4316 3.736C12.6076 4.088 12.7356 4.64 12.8156 5.392C12.9116 6.144 12.9596 7 12.9596 7.96C12.9596 8.616 12.9436 9.312 12.9116 10.048C12.8796 10.768 12.8236 11.488 12.7436 12.208C13.0316 11.952 13.3276 11.704 13.6316 11.464C13.9356 11.208 14.1996 10.944 14.4236 10.672V10.648C14.4236 10.616 14.4076 10.584 14.3756 10.552C14.3596 10.52 14.3516 10.472 14.3516 10.408C14.3516 10.296 14.4316 10.16 14.5916 10C14.7516 9.84 14.9596 9.616 15.2156 9.328C15.4876 9.024 15.7676 8.752 16.0556 8.512C16.3436 8.256 16.6076 8.136 16.8476 8.152C17.0396 8.152 17.1356 8.216 17.1356 8.344C17.1356 8.488 16.9996 8.704 16.7276 8.992C16.4556 9.28 16.1276 9.584 15.7436 9.904C15.3756 10.224 15.0316 10.52 14.7116 10.792C14.4076 11.048 14.2076 11.224 14.1116 11.32L13.1996 12.328L12.7196 12.832C12.9276 13.36 13.1676 13.88 13.4396 14.392C13.7116 14.904 14.0156 15.328 14.3516 15.664C14.7036 16 15.0636 16.168 15.4316 16.168C15.8156 16.168 16.2076 15.936 16.6076 15.472C16.8796 15.136 17.1116 14.76 17.3036 14.344C17.4956 13.928 17.6556 13.616 17.7836 13.408C17.8636 13.248 17.9436 13.144 18.0236 13.096C18.1036 13.032 18.1676 13 18.2156 13C18.3276 13 18.3676 13.08 18.3356 13.24C18.2716 13.448 18.1596 13.712 17.9996 14.032C17.8396 14.352 17.6796 14.656 17.5196 14.944C17.3756 15.216 17.2636 15.408 17.1836 15.52C16.8796 15.968 16.5756 16.296 16.2716 16.504C15.9676 16.712 15.6716 16.816 15.3836 16.816C15.0156 16.816 14.6556 16.68 14.3036 16.408C13.9516 16.136 13.6236 15.784 13.3196 15.352C13.0316 14.92 12.7676 14.464 12.5276 13.984C12.3516 15.2 12.1356 16.288 11.8796 17.248C11.6236 18.224 11.3436 18.896 11.0396 19.264C10.8956 19.408 10.7276 19.48 10.5356 19.48ZM24.1269 17.128C23.7429 17.128 23.4549 16.96 23.2629 16.624C23.0709 16.304 22.9749 15.896 22.9749 15.4C22.9749 15.048 23.0469 14.608 23.1909 14.08C23.3349 13.552 23.5349 13 23.7909 12.424C24.0469 11.848 24.3349 11.312 24.6549 10.816C24.9749 10.304 25.3029 9.896 25.6389 9.592C25.9909 9.272 26.3349 9.112 26.6709 9.112C26.9429 9.112 27.1349 9.216 27.2469 9.424C27.3749 9.616 27.4389 9.824 27.4389 10.048C27.4389 10.24 27.3989 10.416 27.3189 10.576C27.2549 10.72 27.1589 10.792 27.0309 10.792C26.9029 10.792 26.8069 10.736 26.7429 10.624C26.6949 10.496 26.6469 10.368 26.5989 10.24C26.5669 10.112 26.4789 10.048 26.3349 10.048C26.0469 10.048 25.7589 10.232 25.4709 10.6C25.1829 10.968 24.9189 11.432 24.6789 11.992C24.4389 12.552 24.2469 13.136 24.1029 13.744C23.9589 14.336 23.8869 14.864 23.8869 15.328C23.8869 15.664 23.9269 15.928 24.0069 16.12C24.1029 16.328 24.2549 16.432 24.4629 16.432C24.7349 16.432 25.0069 16.264 25.2789 15.928C25.5669 15.576 25.8469 15.128 26.1189 14.584C26.3909 14.024 26.6389 13.44 26.8629 12.832C27.1029 12.224 27.3029 11.656 27.4629 11.128C27.6389 10.584 27.7749 10.152 27.8709 9.832C27.9989 8.712 28.1509 7.584 28.3269 6.448C28.5189 5.312 28.7989 4.208 29.1669 3.136C29.2149 2.96 29.2869 2.808 29.3829 2.68C29.4949 2.552 29.6069 2.488 29.7189 2.488C29.8469 2.488 29.9509 2.576 30.0309 2.752C30.1269 2.928 30.1749 3.128 30.1749 3.352C30.1749 3.528 30.1429 3.712 30.0789 3.904C30.0149 4.096 29.9349 4.352 29.8389 4.672C29.7269 5.056 29.5829 5.568 29.4069 6.208C29.2469 6.832 29.0789 7.544 28.9029 8.344C28.7269 9.128 28.5749 9.968 28.4469 10.864C28.3349 11.744 28.2789 12.624 28.2789 13.504C28.2789 14.176 28.3269 14.648 28.4229 14.92C28.5189 15.192 28.6469 15.328 28.8069 15.328C28.9829 15.328 29.1749 15.216 29.3829 14.992C29.6069 14.768 29.8229 14.496 30.0309 14.176C30.2549 13.856 30.4549 13.536 30.6309 13.216C30.8069 12.88 30.9429 12.616 31.0389 12.424C31.2149 12.072 31.3509 11.896 31.4469 11.896C31.5109 11.896 31.5429 11.968 31.5429 12.112C31.5429 12.224 31.5189 12.344 31.4709 12.472C31.3749 12.68 31.3109 12.84 31.2789 12.952C31.2469 13.048 31.2069 13.144 31.1589 13.24C31.1269 13.336 31.0469 13.488 30.9189 13.696C30.8069 13.888 30.6309 14.152 30.3909 14.488C30.1509 14.808 29.8789 15.104 29.5749 15.376C29.2709 15.632 28.9669 15.76 28.6629 15.76C28.3589 15.76 28.1269 15.632 27.9669 15.376C27.8229 15.12 27.7269 14.792 27.6789 14.392C27.6469 13.976 27.6309 13.552 27.6309 13.12C27.6309 12.592 27.6549 12.032 27.7029 11.44C27.5909 11.824 27.4389 12.28 27.2469 12.808C27.0549 13.32 26.8389 13.84 26.5989 14.368C26.3589 14.896 26.1029 15.376 25.8309 15.808C25.6069 16.16 25.3589 16.464 25.0869 16.72C24.8149 16.992 24.4949 17.128 24.1269 17.128ZM32.6663 16.312C32.0903 16.312 31.5863 15.976 31.1543 15.304C30.7383 14.616 30.5303 13.536 30.5303 12.064C30.5303 11.104 30.6503 10.336 30.8903 9.76C31.1303 9.168 31.4263 8.736 31.7783 8.464C32.1303 8.192 32.4663 8.056 32.7863 8.056C33.1063 8.056 33.3783 8.168 33.6023 8.392C33.8263 8.6 33.9383 8.904 33.9383 9.304C33.9383 9.688 33.8263 10.096 33.6023 10.528C33.3783 10.944 33.1063 11.328 32.7863 11.68C32.4823 12.016 32.1783 12.24 31.8743 12.352C31.8103 12.384 31.7303 12.4 31.6343 12.4C31.5703 12.4 31.5383 12.376 31.5383 12.328C31.5383 12.2 31.6663 12.056 31.9223 11.896C32.2423 11.672 32.5463 11.336 32.8343 10.888C33.1223 10.424 33.2663 10.016 33.2663 9.664C33.2663 9.456 33.2183 9.296 33.1223 9.184C33.0263 9.056 32.9143 8.992 32.7863 8.992C32.5463 8.992 32.2823 9.184 31.9943 9.568C31.7223 9.936 31.5223 10.576 31.3943 11.488C31.3623 11.744 31.3303 11.992 31.2983 12.232C31.2823 12.456 31.2743 12.68 31.2743 12.904C31.2743 13.8 31.4103 14.504 31.6823 15.016C31.9543 15.512 32.3143 15.76 32.7623 15.76C33.1463 15.76 33.5783 15.536 34.0583 15.088C34.5383 14.624 35.0103 13.904 35.4743 12.928C35.5863 12.672 35.7143 12.544 35.8583 12.544C35.9543 12.544 36.0023 12.608 36.0023 12.736C36.0023 12.848 35.9703 12.968 35.9062 13.096C35.4903 14.12 34.9863 14.912 34.3943 15.472C33.8023 16.032 33.2263 16.312 32.6663 16.312ZM37.3761 17.608C37.2801 17.608 37.1841 17.552 37.0881 17.44C37.0081 17.328 36.9521 17.152 36.9201 16.912C36.9041 16.848 36.8961 16.752 36.8961 16.624C36.8961 16.512 36.8961 16.376 36.8961 16.216C36.8961 15.896 36.8961 15.576 36.8961 15.256C36.9121 14.92 36.9201 14.696 36.9201 14.584C36.9201 13.912 36.8881 13.232 36.8241 12.544C36.7601 11.856 36.6321 11.28 36.4401 10.816C36.2481 10.352 35.9441 10.12 35.5281 10.12C35.2721 10.12 35.0321 10.216 34.8081 10.408C34.6001 10.584 34.4241 10.768 34.2801 10.96C34.1201 11.152 34.0081 11.248 33.9441 11.248C33.8801 11.248 33.8481 11.216 33.8481 11.152C33.8481 11.072 33.9201 10.944 34.0641 10.768C34.2081 10.576 34.3121 10.448 34.3761 10.384C34.6161 10.144 34.8801 9.928 35.1681 9.736C35.4721 9.544 35.7521 9.448 36.0081 9.448C36.4081 9.448 36.7201 9.672 36.9441 10.12C37.1681 10.552 37.3281 11.104 37.4241 11.776C37.5201 12.432 37.5681 13.096 37.5681 13.768C37.5681 14.104 37.5601 14.432 37.5441 14.752C37.5281 15.056 37.5041 15.336 37.4721 15.592C37.6161 15.192 37.8001 14.72 38.0241 14.176C38.2481 13.616 38.5041 13.048 38.7921 12.472C39.0961 11.88 39.4161 11.328 39.7521 10.816C40.0881 10.304 40.4481 9.88 40.8321 9.544C41.0561 9.352 41.2241 9.256 41.3361 9.256C41.4321 9.256 41.4801 9.304 41.4801 9.4C41.4801 9.56 41.3441 9.76 41.0721 10C40.5121 10.496 40.0401 11.064 39.6561 11.704C39.2721 12.344 38.9601 13 38.7201 13.672C38.4961 14.344 38.3281 14.976 38.2161 15.568C38.1041 16.16 38.0321 16.648 38.0001 17.032C37.9841 17.144 37.9121 17.264 37.7841 17.392C37.6561 17.536 37.5201 17.608 37.3761 17.608ZM42.8381 16.312C42.2621 16.312 41.7581 15.976 41.3261 15.304C40.9101 14.616 40.7021 13.536 40.7021 12.064C40.7021 11.104 40.8221 10.336 41.0621 9.76C41.3021 9.168 41.5981 8.736 41.9501 8.464C42.3021 8.192 42.6381 8.056 42.9581 8.056C43.2781 8.056 43.5501 8.168 43.7741 8.392C43.9981 8.6 44.1101 8.904 44.1101 9.304C44.1101 9.688 43.9981 10.096 43.7741 10.528C43.5501 10.944 43.2781 11.328 42.9581 11.68C42.6541 12.016 42.3501 12.24 42.0461 12.352C41.9821 12.384 41.9021 12.4 41.8061 12.4C41.7421 12.4 41.7101 12.376 41.7101 12.328C41.7101 12.2 41.8381 12.056 42.0941 11.896C42.4141 11.672 42.7181 11.336 43.0061 10.888C43.2941 10.424 43.4381 10.016 43.4381 9.664C43.4381 9.456 43.3901 9.296 43.2941 9.184C43.1981 9.056 43.0861 8.992 42.9581 8.992C42.7181 8.992 42.4541 9.184 42.1661 9.568C41.8941 9.936 41.6941 10.576 41.5661 11.488C41.5341 11.744 41.5021 11.992 41.4701 12.232C41.4541 12.456 41.4461 12.68 41.4461 12.904C41.4461 13.8 41.5821 14.504 41.8541 15.016C42.1261 15.512 42.4861 15.76 42.9341 15.76C43.3181 15.76 43.7501 15.536 44.2301 15.088C44.7101 14.624 45.1821 13.904 45.6461 12.928C45.7581 12.672 45.8861 12.544 46.0301 12.544C46.1261 12.544 46.1741 12.608 46.1741 12.736C46.1741 12.848 46.1421 12.968 46.0781 13.096C45.6621 14.12 45.1581 14.912 44.5661 15.472C43.9741 16.032 43.3981 16.312 42.8381 16.312ZM49.1319 19.816C48.9239 19.816 48.7239 19.736 48.5319 19.576C48.3559 19.416 48.2039 19.256 48.0759 19.096C47.5639 18.504 47.1319 17.72 46.7799 16.744C46.4439 15.768 46.1879 14.696 46.0119 13.528C45.8359 12.344 45.7479 11.144 45.7479 9.928C45.7479 8.792 45.8199 7.688 45.9639 6.616C46.1239 5.544 46.3639 4.568 46.6839 3.688C47.0039 2.808 47.4039 2.104 47.8839 1.576C48.5079 0.871999 49.1079 0.519999 49.6839 0.519999C50.0359 0.519999 50.3159 0.679999 50.5239 1C50.7479 1.304 50.8599 1.792 50.8599 2.464C50.8599 3.104 50.7319 3.92 50.4759 4.912C50.2359 5.888 49.8199 7.056 49.2279 8.416C49.0199 8.864 48.7959 9.312 48.5559 9.76C48.3319 10.208 48.0919 10.68 47.8359 11.176C47.7399 11.368 47.6599 11.464 47.5959 11.464C47.5639 11.464 47.5479 11.432 47.5479 11.368C47.5479 11.24 47.6039 11.072 47.7159 10.864C49.1719 8.128 49.8999 5.408 49.8999 2.704C49.8999 1.632 49.6759 1.096 49.2279 1.096C48.9079 1.096 48.5319 1.408 48.0999 2.032C47.5079 2.912 47.0999 3.96 46.8759 5.176C46.6519 6.376 46.5399 7.592 46.5399 8.824C46.5399 9.752 46.5799 10.656 46.6599 11.536C46.7399 12.4 46.8359 13.184 46.9479 13.888C46.9959 14.192 47.0679 14.6 47.1639 15.112C47.2599 15.624 47.3879 16.16 47.5479 16.72C47.7079 17.296 47.8839 17.816 48.0759 18.28C48.2839 18.76 48.5079 19.104 48.7479 19.312C48.8119 19.36 48.8759 19.408 48.9399 19.456C49.0199 19.52 49.1079 19.56 49.2039 19.576C49.3479 19.576 49.4199 19.616 49.4199 19.696C49.4199 19.776 49.3239 19.816 49.1319 19.816ZM51.8672 16.84C51.3392 16.84 50.9072 16.68 50.5712 16.36C50.2512 16.04 50.0112 15.632 49.8512 15.136C49.6912 14.624 49.6112 14.088 49.6112 13.528C49.6112 13.192 49.6432 12.872 49.7072 12.568C49.7712 12.264 49.8352 12.016 49.8992 11.824C49.8832 11.712 49.8672 11.6 49.8512 11.488C49.8512 11.36 49.8512 11.232 49.8512 11.104C49.8512 10.64 49.8992 10.136 49.9952 9.592C50.0912 9.048 50.2432 8.528 50.4512 8.032C50.6752 7.536 50.9472 7.136 51.2672 6.832C51.6032 6.512 52.0112 6.352 52.4912 6.352C52.9072 6.352 53.3152 6.528 53.7152 6.88C54.1152 7.216 54.4672 7.712 54.7712 8.368C54.9472 8.736 55.0672 9.136 55.1312 9.568C55.2112 9.984 55.2512 10.408 55.2512 10.84C55.2512 11.432 55.1872 12.024 55.0592 12.616C54.9472 13.192 54.7792 13.736 54.5552 14.248C54.3952 14.616 54.1792 15.008 53.9072 15.424C53.6512 15.824 53.3552 16.16 53.0192 16.432C52.6832 16.704 52.2992 16.84 51.8672 16.84ZM51.9872 16.312C52.5312 16.312 53.0352 15.936 53.4992 15.184C53.8352 14.656 54.0752 14.056 54.2192 13.384C54.3632 12.696 54.4352 12.008 54.4352 11.32C54.4352 10.808 54.4032 10.312 54.3392 9.832C54.2752 9.352 54.1792 8.888 54.0512 8.44C53.9392 8.04 53.7472 7.688 53.4752 7.384C53.2192 7.064 52.8512 6.928 52.3712 6.976C51.9872 7.008 51.6512 7.2 51.3632 7.552C51.0752 7.904 50.8512 8.304 50.6912 8.752C50.5472 9.184 50.4752 9.56 50.4752 9.88C50.4752 10.056 50.4992 10.192 50.5472 10.288C50.5952 10.16 50.7152 9.952 50.9072 9.664C51.0992 9.36 51.3152 9.088 51.5552 8.848C51.7952 8.592 52.0192 8.464 52.2272 8.464C52.4032 8.464 52.4912 8.536 52.4912 8.68C52.2832 8.696 52.0752 8.824 51.8672 9.064C51.6752 9.288 51.4912 9.56 51.3152 9.88C51.1552 10.2 51.0192 10.52 50.9072 10.84C50.8112 11.144 50.7392 11.384 50.6912 11.56C50.6752 11.624 50.6512 11.704 50.6192 11.8C50.5872 11.896 50.5712 11.992 50.5712 12.088C50.5712 12.2 50.6352 12.384 50.7632 12.64C50.8912 12.88 51.0992 13.104 51.3872 13.312C51.6752 13.52 52.0672 13.624 52.5632 13.624C52.7072 13.624 52.8592 13.608 53.0192 13.576C53.1792 13.544 53.3312 13.512 53.4752 13.48L53.6432 13.432C53.6752 13.432 53.6912 13.448 53.6912 13.48C53.6912 13.528 53.6352 13.592 53.5232 13.672C53.4272 13.736 53.3392 13.784 53.2592 13.816C53.0352 13.928 52.7872 13.984 52.5152 13.984C52.1152 13.984 51.7312 13.864 51.3632 13.624C51.0112 13.368 50.6992 13.08 50.4272 12.76C50.4112 12.888 50.4032 13.016 50.4032 13.144C50.4032 13.256 50.4032 13.368 50.4032 13.48C50.4032 14.408 50.5632 15.112 50.8832 15.592C51.2032 16.072 51.5712 16.312 51.9872 16.312ZM56.0783 23.824C55.8383 23.824 55.6463 23.664 55.5023 23.344C55.3582 23.04 55.2542 22.672 55.1902 22.24C55.1102 21.808 55.0702 21.408 55.0702 21.04C55.0702 20.864 55.0782 20.608 55.0942 20.272C55.1102 19.936 55.1342 19.576 55.1662 19.192C55.1982 18.808 55.2302 18.448 55.2622 18.112C55.2942 17.776 55.3182 17.52 55.3342 17.344C55.4783 16.256 55.6943 15.208 55.9823 14.2C56.2703 13.176 56.5823 12.176 56.9183 11.2C56.9343 11.168 56.9503 11.12 56.9663 11.056C56.9983 10.992 57.0223 10.96 57.0383 10.96V10.888C56.8783 10.952 56.6703 11.104 56.4143 11.344C56.1743 11.584 55.9983 11.768 55.8863 11.896C55.7743 12.008 55.6703 12.128 55.5743 12.256C55.4783 12.368 55.3662 12.424 55.2382 12.424C55.1102 12.424 55.0462 12.352 55.0462 12.208C55.0462 12.032 55.1422 11.856 55.3342 11.68C55.5103 11.488 55.7103 11.312 55.9343 11.152C56.1583 10.976 56.3983 10.816 56.6543 10.672C56.9263 10.528 57.1183 10.424 57.2303 10.36C57.2783 10.328 57.3103 10.288 57.3263 10.24C57.3583 10.192 57.3823 10.144 57.3983 10.096C57.5103 9.92 57.6223 9.752 57.7343 9.592C57.8623 9.432 58.0303 9.32 58.2383 9.256C58.3823 9.272 58.5423 9.304 58.7183 9.352C58.8943 9.4 58.9983 9.512 59.0303 9.688C59.0303 9.752 59.0463 9.784 59.0783 9.784V9.808C59.1583 9.808 59.2543 9.8 59.3663 9.784C59.4943 9.752 59.6383 9.736 59.7983 9.736C60.4223 9.736 60.9263 9.896 61.3103 10.216C61.6943 10.536 61.8863 10.96 61.8863 11.488C61.8863 11.984 61.7423 12.52 61.4543 13.096C61.1663 13.656 60.8543 14.112 60.5183 14.464C59.9903 14.992 59.4303 15.456 58.8383 15.856C58.2623 16.24 57.7663 16.432 57.3503 16.432C57.0943 16.432 56.9183 16.36 56.8223 16.216C56.7423 16.088 56.7023 15.928 56.7023 15.736C56.7023 15.464 56.8223 15.192 57.0623 14.92C57.3023 14.648 57.5423 14.416 57.7823 14.224C58.0543 14 58.3343 13.792 58.6223 13.6C58.9263 13.408 59.1823 13.248 59.3903 13.12C59.5023 13.04 59.6063 12.968 59.7023 12.904C59.8143 12.84 59.9103 12.808 59.9903 12.808C60.0383 12.808 60.0623 12.832 60.0623 12.88C60.0623 12.912 59.9663 12.992 59.7743 13.12C59.5983 13.248 59.4463 13.36 59.3183 13.456C59.2223 13.536 59.0543 13.68 58.8143 13.888C58.5743 14.08 58.3183 14.304 58.0463 14.56C57.7903 14.8 57.5663 15.048 57.3743 15.304C57.1823 15.56 57.0863 15.784 57.0863 15.976C57.3423 15.976 57.6223 15.872 57.9263 15.664C58.2463 15.44 58.5583 15.184 58.8623 14.896C59.1823 14.608 59.4543 14.368 59.6783 14.176C59.8863 13.984 60.1343 13.72 60.4223 13.384C60.7103 13.048 60.9663 12.688 61.1903 12.304C61.4143 11.92 61.5263 11.568 61.5263 11.248C61.5263 10.832 61.3663 10.528 61.0463 10.336C60.7423 10.128 60.3743 10.024 59.9423 10.024C59.7983 10.024 59.6143 10.04 59.3903 10.072C59.1663 10.104 59.0303 10.136 58.9823 10.168C58.6303 10.712 58.2943 11.264 57.9743 11.824C57.6543 12.384 57.3583 12.96 57.0863 13.552C56.6383 14.512 56.2783 15.488 56.0063 16.48C55.7503 17.472 55.5823 18.544 55.5023 19.696C55.4863 19.968 55.4623 20.256 55.4303 20.56C55.4143 20.864 55.4143 21.168 55.4303 21.472C55.4463 21.632 55.4783 21.888 55.5263 22.24C55.5743 22.592 55.6543 22.912 55.7663 23.2C55.8783 23.488 56.0303 23.632 56.2223 23.632C56.2383 23.632 56.2703 23.632 56.3183 23.632C56.3663 23.632 56.3903 23.64 56.3903 23.656V23.728C56.2783 23.792 56.1743 23.824 56.0783 23.824ZM64.2131 16.312C63.6371 16.312 63.1331 15.976 62.7011 15.304C62.2851 14.616 62.0771 13.536 62.0771 12.064C62.0771 11.104 62.1971 10.336 62.4371 9.76C62.6771 9.168 62.9731 8.736 63.3251 8.464C63.6771 8.192 64.0131 8.056 64.3331 8.056C64.6531 8.056 64.9251 8.168 65.1491 8.392C65.3731 8.6 65.4851 8.904 65.4851 9.304C65.4851 9.688 65.3731 10.096 65.1491 10.528C64.9251 10.944 64.6531 11.328 64.3331 11.68C64.0291 12.016 63.7251 12.24 63.4211 12.352C63.3571 12.384 63.2771 12.4 63.1811 12.4C63.1171 12.4 63.0851 12.376 63.0851 12.328C63.0851 12.2 63.2131 12.056 63.4691 11.896C63.7891 11.672 64.0931 11.336 64.3811 10.888C64.6691 10.424 64.8131 10.016 64.8131 9.664C64.8131 9.456 64.7651 9.296 64.6691 9.184C64.5731 9.056 64.4611 8.992 64.3331 8.992C64.0931 8.992 63.8291 9.184 63.5411 9.568C63.2691 9.936 63.0691 10.576 62.9411 11.488C62.9091 11.744 62.8771 11.992 62.8451 12.232C62.8291 12.456 62.8211 12.68 62.8211 12.904C62.8211 13.8 62.9571 14.504 63.2291 15.016C63.5011 15.512 63.8611 15.76 64.3091 15.76C64.6931 15.76 65.1251 15.536 65.6051 15.088C66.0851 14.624 66.5571 13.904 67.0211 12.928C67.1331 12.672 67.2611 12.544 67.4051 12.544C67.5011 12.544 67.5491 12.608 67.5491 12.736C67.5491 12.848 67.5171 12.968 67.4531 13.096C67.0371 14.12 66.5331 14.912 65.9411 15.472C65.3491 16.032 64.7731 16.312 64.2131 16.312ZM70.0269 17.2C69.5149 17.2 69.1229 16.96 68.8509 16.48C68.5789 16.016 68.4429 15.504 68.4429 14.944C68.4429 14.416 68.5309 13.864 68.7069 13.288C68.8829 12.712 69.0989 12.144 69.3549 11.584C69.6269 11.024 69.9069 10.512 70.1949 10.048C69.9069 10.16 69.6349 10.216 69.3789 10.216C69.2509 10.216 69.1389 10.2 69.0429 10.168C68.9469 10.136 68.8669 10.112 68.8029 10.096C68.7229 10.288 68.5789 10.608 68.3709 11.056C68.1789 11.504 67.9709 11.976 67.7469 12.472C67.5389 12.952 67.3549 13.36 67.1949 13.696C66.9389 14.24 66.7149 14.512 66.5229 14.512C66.4269 14.512 66.3789 14.448 66.3789 14.32C66.3789 14.224 66.4189 14.096 66.4989 13.936C66.8669 13.248 67.2109 12.568 67.5309 11.896C67.8669 11.224 68.1709 10.576 68.4429 9.952C68.4109 9.872 68.3789 9.768 68.3469 9.64C68.3149 9.496 68.2989 9.344 68.2989 9.184C68.2989 9.008 68.3149 8.824 68.3469 8.632C68.3949 8.424 68.4589 8.224 68.5389 8.032C68.5869 7.92 68.6749 7.76 68.8029 7.552C68.9309 7.328 69.0749 7.128 69.2349 6.952C69.3949 6.76 69.5469 6.664 69.6909 6.664C69.9629 6.664 70.0989 6.808 70.0989 7.096C70.0989 7.368 70.0109 7.68 69.8349 8.032C69.6749 8.384 69.5069 8.712 69.3309 9.016C69.1549 9.304 69.0669 9.52 69.0669 9.664C69.0669 9.792 69.1309 9.856 69.2589 9.856C69.4349 9.856 69.6509 9.768 69.9069 9.592C70.1789 9.4 70.3949 9.224 70.5549 9.064C70.6349 8.984 70.7629 8.864 70.9389 8.704C71.1149 8.528 71.2829 8.44 71.4429 8.44C71.6029 8.44 71.7069 8.488 71.7549 8.584C71.8189 8.68 71.8509 8.792 71.8509 8.92C71.8509 9.064 71.7869 9.248 71.6589 9.472C71.5309 9.68 71.3789 9.888 71.2029 10.096C71.0429 10.304 70.9069 10.48 70.7949 10.624C70.5709 10.96 70.3149 11.384 70.0269 11.896C69.7389 12.408 69.4909 12.96 69.2829 13.552C69.0749 14.128 68.9709 14.68 68.9709 15.208C68.9709 15.56 69.0589 15.928 69.2349 16.312C69.4109 16.696 69.6509 16.888 69.9549 16.888C70.2269 16.888 70.5149 16.744 70.8189 16.456C71.1389 16.168 71.4349 15.824 71.7069 15.424C71.9949 15.024 72.2429 14.64 72.4509 14.272C72.6749 13.904 72.8269 13.648 72.9069 13.504C72.9389 13.424 72.9949 13.328 73.0749 13.216C73.1549 13.088 73.2509 13.024 73.3629 13.024C73.4589 13.024 73.5069 13.072 73.5069 13.168C73.5069 13.248 73.4829 13.344 73.4349 13.456C73.4029 13.552 73.3709 13.64 73.3389 13.72C73.1949 14.056 73.0189 14.408 72.8109 14.776C72.6029 15.144 72.4589 15.392 72.3789 15.52C72.1549 15.888 71.8189 16.256 71.3709 16.624C70.9389 17.008 70.4909 17.2 70.0269 17.2ZM75.111 17.032C74.903 17.032 74.751 16.96 74.655 16.816C74.575 16.688 74.535 16.56 74.535 16.432C74.535 16.176 74.647 15.912 74.871 15.64C74.951 15.544 75.063 15.416 75.207 15.256C75.351 15.08 75.455 14.944 75.519 14.848C75.311 14.56 75.031 14.296 74.679 14.056C74.327 13.816 73.983 13.512 73.647 13.144C73.343 12.808 73.087 12.4 72.879 11.92C72.671 11.424 72.567 10.952 72.567 10.504C72.567 9.976 72.687 9.472 72.927 8.992C73.167 8.512 73.463 8.096 73.815 7.744C74.199 7.36 74.623 7.056 75.087 6.832C75.551 6.592 76.031 6.472 76.527 6.472C76.863 6.472 77.191 6.552 77.511 6.712C77.831 6.872 77.991 7.136 77.991 7.504C77.991 7.936 77.895 8.152 77.703 8.152C77.623 8.152 77.567 8.072 77.535 7.912C77.519 7.832 77.511 7.752 77.511 7.672C77.511 7.576 77.511 7.512 77.511 7.48C77.511 7.32 77.439 7.184 77.295 7.072C77.151 6.944 76.991 6.88 76.815 6.88C76.447 6.88 76.039 7.024 75.591 7.312C75.143 7.6 74.767 7.936 74.463 8.32C74.159 8.72 73.911 9.176 73.719 9.688C73.527 10.184 73.431 10.664 73.431 11.128C73.431 11.704 73.559 12.2 73.815 12.616C74.071 13.032 74.375 13.4 74.727 13.72C75.095 14.04 75.423 14.352 75.711 14.656C75.855 14.48 76.007 14.312 76.167 14.152C76.343 13.992 76.503 13.864 76.647 13.768C76.775 13.688 76.863 13.648 76.911 13.648C76.959 13.648 76.983 13.672 76.983 13.72C76.983 13.8 76.911 13.896 76.767 14.008C76.735 14.04 76.639 14.136 76.479 14.296C76.335 14.44 76.159 14.624 75.951 14.848C76.079 14.992 76.183 15.144 76.263 15.304C76.343 15.464 76.383 15.64 76.383 15.832C76.383 16.088 76.239 16.352 75.951 16.624C75.663 16.896 75.383 17.032 75.111 17.032ZM75.375 16.384C75.487 16.384 75.591 16.28 75.687 16.072C75.799 15.88 75.855 15.688 75.855 15.496C75.855 15.4 75.839 15.312 75.807 15.232C75.775 15.152 75.751 15.104 75.735 15.088C75.607 15.248 75.487 15.424 75.375 15.616C75.279 15.792 75.231 15.952 75.231 16.096C75.231 16.288 75.279 16.384 75.375 16.384Z" fill="black"/>
</svg>
