<svg width="62" height="62" viewBox="0 0 62 62" fill="none" xmlns="http://www.w3.org/2000/svg">
<g filter="url(#filter0_d_343_478)">
<circle cx="31" cy="27" r="17" fill="#FAFAFA"/>
</g>
<g clip-path="url(#clip0_343_478)">
<path d="M35.9973 31.9993V31.9988H36V27.9646C36 25.991 35.5751 24.4707 33.2679 24.4707C32.1587 24.4707 31.4144 25.0794 31.1105 25.6564H31.0784V24.655H28.8908V31.9988H31.1687V28.3624C31.1687 27.405 31.3502 26.4791 32.5359 26.4791C33.7042 26.4791 33.7216 27.5718 33.7216 28.4238V31.9993H35.9973Z" fill="#1A202C"/>
<path d="M25.1815 24.6562H27.4622V32.0001H25.1815V24.6562Z" fill="#1A202C"/>
<path d="M26.3209 21C25.5917 21 25 21.5917 25 22.3209C25 23.0501 25.5917 23.6542 26.3209 23.6542C27.0501 23.6542 27.6418 23.0501 27.6418 22.3209C27.6414 21.5917 27.0497 21 26.3209 21V21Z" fill="#1A202C"/>
</g>
<defs>
<filter id="filter0_d_343_478" x="0" y="0" width="62" height="62" filterUnits="userSpaceOnUse" color-interpolation-filters="sRGB">
<feFlood flood-opacity="0" result="BackgroundImageFix"/>
<feColorMatrix in="SourceAlpha" type="matrix" values="0 0 0 0 0 0 0 0 0 0 0 0 0 0 0 0 0 0 127 0" result="hardAlpha"/>
<feOffset dy="4"/>
<feGaussianBlur stdDeviation="7"/>
<feColorMatrix type="matrix" values="0 0 0 0 0 0 0 0 0 0 0 0 0 0 0 0 0 0 0.15 0"/>
<feBlend mode="normal" in2="BackgroundImageFix" result="effect1_dropShadow_343_478"/>
<feBlend mode="normal" in="SourceGraphic" in2="effect1_dropShadow_343_478" result="shape"/>
</filter>
<clipPath id="clip0_343_478">
<rect width="11" height="11" fill="white" transform="translate(25 21)"/>
</clipPath>
</defs>
</svg>
